<svg width="51" height="51" viewBox="0 0 51 51" fill="none" xmlns="http://www.w3.org/2000/svg">
<rect opacity="0.18" x="0.75" y="0.5" width="50" height="50" rx="6" fill="#EF5DA8"/>
<path d="M24.8358 31.1526C21.7694 30.4018 20.8453 27.8103 21.0959 25.9997C21.4215 23.6534 23.3694 21.9393 25.6967 21.9207C28.0662 21.9021 30.0199 23.5779 30.3971 25.9544C30.7707 28.3065 29.2621 30.3786 26.4159 31.2258C28.4961 31.5337 30.0937 32.41 31.2251 33.8173C32.3543 33.2816 33.4248 32.7726 34.4134 32.3031C32.3484 31.3896 31.4371 29.9323 31.8764 28.0916C32.2606 26.4774 33.768 25.3478 35.4558 25.4105C37.0956 25.471 38.5445 26.754 38.7635 28.3379C39.0224 30.2136 38.0525 31.6441 35.9759 32.3554C36.1539 32.4158 36.2628 32.4669 36.3776 32.4913C38.9978 33.0422 40.7418 35.177 40.7512 37.8487C40.757 39.3571 40.757 39.3571 39.2461 39.3571C30.1476 39.3571 21.0479 39.3571 11.9494 39.3571C10.8086 39.3571 10.75 39.3002 10.75 38.1822C10.75 35.0829 12.2574 33.1921 15.311 32.46C15.3613 32.4483 15.4035 32.4042 15.4585 32.3693C13.2355 31.3641 12.3406 29.9312 12.7751 28.0939C13.1617 26.4599 14.7031 25.3211 16.4108 25.4117C18.026 25.4965 19.4468 26.7725 19.6634 28.3344C19.9246 30.2113 18.9501 31.6511 17.0468 32.2961C18.0529 32.7656 19.1176 33.263 20.1929 33.765C20.8148 33.2792 21.4906 32.6203 22.2848 32.1694C23.0789 31.7197 23.9937 31.478 24.8358 31.1526ZM31.58 38.1706C31.6398 36.109 30.4041 34.0393 28.4961 33.0736C26.3854 32.0044 24.3041 32.1322 22.3621 33.478C20.7469 34.5971 19.9621 36.188 19.8954 38.1706C23.8238 38.1706 27.6797 38.1706 31.58 38.1706ZM29.2621 26.5541C29.2551 24.6435 27.6762 23.0851 25.7482 23.0851C23.8203 23.0851 22.2426 24.6447 22.2367 26.5564C22.2309 28.4925 23.825 30.0672 25.7799 30.0544C27.7043 30.0404 29.2691 28.4669 29.2621 26.5541ZM18.5987 38.1625C18.8072 37.3002 18.9033 36.4379 19.2336 35.6744C19.5065 35.0422 19.3753 34.7133 18.8529 34.4042C18.7358 34.3356 18.6292 34.2485 18.5109 34.1834C16.9262 33.3176 15.3379 33.2816 13.8117 34.2787C12.4331 35.1805 11.8159 36.4867 11.9424 38.1625C14.2076 38.1625 16.4377 38.1625 18.5987 38.1625ZM39.5459 38.1694C39.6724 36.2856 38.8139 34.7795 37.2045 33.9951C35.621 33.2223 33.6497 33.4803 32.3496 34.6517C32.2137 34.7737 32.0591 35.0189 32.0954 35.1607C32.3507 36.1578 32.6553 37.1433 32.954 38.1706C35.0763 38.1694 37.2912 38.1694 39.5459 38.1694ZM18.5238 28.9701C18.566 27.6848 17.5516 26.6098 16.262 26.575C14.9947 26.5401 13.9359 27.5244 13.8785 28.7888C13.8199 30.0764 14.8179 31.1607 16.1086 31.2118C17.397 31.263 18.4816 30.2566 18.5238 28.9701ZM32.9739 28.9167C32.9868 30.202 34.0491 31.2339 35.3375 31.2142C36.6037 31.1944 37.6227 30.1648 37.6274 28.9015C37.6309 27.6174 36.5814 26.5703 35.293 26.5738C34.0034 26.5785 32.961 27.6325 32.9739 28.9167Z" fill="#EF5DA8"/>
<path d="M28.8252 19.6151C28.8299 20.2635 28.4433 20.5204 27.9268 20.2752C27.347 19.9997 26.7754 19.7046 26.2214 19.3815C25.8853 19.1862 25.6065 19.163 25.2598 19.3687C24.7257 19.6871 24.1728 19.9811 23.6024 20.2263C23.3869 20.3193 23.0238 20.3449 22.8657 20.224C22.7052 20.102 22.6982 19.7627 22.6572 19.514C22.6373 19.3873 22.6677 19.2385 22.7158 19.1154C23.2803 17.6883 22.8411 16.604 21.5878 15.7824C21.4602 15.6987 21.3559 15.5744 21.2552 15.457C20.8933 15.0328 21.0221 14.568 21.5714 14.4564C22.2578 14.317 22.9629 14.2658 23.6481 14.1194C23.8707 14.0718 24.126 13.887 24.2408 13.6917C24.5722 13.1246 24.8147 12.5064 25.1462 11.9393C25.2645 11.7359 25.5397 11.4953 25.7388 11.4988C25.9415 11.5023 26.1956 11.7498 26.3257 11.9555C26.5728 12.346 26.8012 12.7655 26.9406 13.2025C27.176 13.937 27.6633 14.2194 28.4047 14.2391C28.8498 14.2507 29.303 14.3146 29.7341 14.4262C29.9683 14.4866 30.2787 14.6586 30.3443 14.8515C30.4087 15.0386 30.2635 15.3675 30.1065 15.5442C29.6943 16.0067 29.241 16.4378 28.7725 16.8469C28.4878 17.0956 28.4105 17.3466 28.489 17.7115C28.6307 18.3728 28.7268 19.0445 28.8252 19.6151ZM28.5569 15.536C28.5183 15.4965 28.4796 15.457 28.441 15.4163C28.0568 15.3582 27.6738 15.2757 27.2873 15.249C26.7801 15.213 26.4686 14.9817 26.2847 14.5087C26.1441 14.1473 25.9321 13.8138 25.7517 13.4686C25.7037 13.4477 25.6545 13.4256 25.6065 13.4047C25.3746 14.9341 24.393 15.4663 22.9137 15.4442C24.2092 16.2577 24.5441 17.3106 23.8917 18.7156C24.6086 18.4007 25.1696 17.9637 25.733 17.9602C26.2847 17.9567 26.8398 18.3937 27.5801 18.7191C26.8996 17.2804 27.2685 16.2577 28.5569 15.536Z" fill="#EF5DA8"/>
<path d="M17.4392 23.3548C17.0655 23.1677 16.6029 22.9643 16.173 22.7086C15.8673 22.5273 15.6214 22.5192 15.3203 22.7109C14.9935 22.919 14.641 23.0921 14.2861 23.249C13.7169 23.5 13.212 23.1584 13.4006 22.5878C13.7836 21.4268 13.5154 20.5575 12.5139 19.8545C12.3582 19.7452 12.2528 19.385 12.3137 19.2025C12.3746 19.0212 12.6756 18.7969 12.8665 18.8004C14.0694 18.8237 14.819 18.3042 15.1751 17.1549C15.236 16.9596 15.5581 16.7411 15.7713 16.7284C15.9517 16.7179 16.262 16.955 16.3194 17.1421C16.6732 18.2833 17.4029 18.8341 18.6175 18.8004C18.8084 18.7958 19.1094 19.0166 19.1727 19.1967C19.2359 19.378 19.1352 19.7382 18.9818 19.8486C17.9873 20.5575 17.691 21.4315 18.1033 22.5889C18.2474 22.9887 18.0155 23.299 17.4392 23.3548ZM14.0788 19.8289C14.8671 20.303 15.0053 20.9143 14.7464 21.7011C15.407 21.127 16.0512 21.2083 16.7423 21.6418C16.4237 20.8481 16.7364 20.2926 17.3221 19.7743C16.4295 19.8498 16.0196 19.3524 15.7666 18.6249C15.202 19.5756 15.202 19.5756 14.0788 19.8289Z" fill="#EF5DA8"/>
<path d="M37.3591 23.3548C36.9855 23.1665 36.5228 22.9643 36.093 22.7086C35.7873 22.5262 35.5413 22.5215 35.2403 22.7121C34.9135 22.9201 34.5609 23.0933 34.2061 23.2502C33.6368 23.5012 33.132 23.1572 33.3217 22.5866C33.7059 21.4245 33.4342 20.5564 32.4351 19.8533C32.2793 19.7441 32.1751 19.3838 32.236 19.2013C32.2969 19.0201 32.5979 18.7969 32.79 18.8004C33.9941 18.8248 34.7413 18.3019 35.0986 17.1537C35.1595 16.9585 35.4816 16.74 35.6959 16.7284C35.8763 16.7179 36.1867 16.9561 36.2441 17.1421C36.5966 18.2856 37.3287 18.8318 38.5433 18.7993C38.7342 18.7946 39.0352 19.0154 39.0973 19.1967C39.1594 19.378 39.0598 19.7382 38.9052 19.8475C37.9096 20.5552 37.6168 21.4315 38.0279 22.5878C38.1673 22.9899 37.9342 23.3001 37.3591 23.3548ZM35.6514 18.4948C35.4207 19.428 34.9217 19.8033 34.0749 19.8022C34.7741 20.2984 34.9334 20.9027 34.6664 21.6918C35.3305 21.1432 35.9723 21.1909 36.6587 21.6511C36.3636 20.862 36.6318 20.2937 37.249 19.7812C36.3589 19.844 35.9337 19.3652 35.6514 18.4948Z" fill="#EF5DA8"/>
<path d="M30.0281 36.5646C29.9543 36.6494 29.8372 36.9097 29.6662 36.9504C29.4682 36.998 29.1532 36.9213 29.0114 36.7784C28.5113 36.2787 28.0416 35.7441 27.6106 35.1851C27.4876 35.0259 27.449 34.6994 27.5309 34.5216C27.5989 34.3728 27.9058 34.2392 28.0955 34.2531C28.6729 34.2938 30.0117 35.8429 30.0281 36.5646Z" fill="#EF5DA8"/>
<path d="M25.8677 33.4617C26.02 33.6872 26.2988 33.9184 26.2882 34.1369C26.28 34.331 25.9509 34.5111 25.7647 34.697C25.5679 34.5018 25.254 34.3286 25.2095 34.1044C25.1743 33.9277 25.4707 33.686 25.6206 33.4733C25.7038 33.4698 25.7857 33.4652 25.8677 33.4617Z" fill="#EF5DA8"/>
</svg>
