<svg width="16" height="16" viewBox="0 0 16 16" fill="none" xmlns="http://www.w3.org/2000/svg">
<path d="M12.3332 8.43311V10.8998C12.3332 12.9798 10.3932 14.6664 7.99984 14.6664C5.6065 14.6664 3.6665 12.9798 3.6665 10.8998V8.43311C3.6665 10.5131 5.6065 11.9998 7.99984 11.9998C10.3932 11.9998 12.3332 10.5131 12.3332 8.43311Z" stroke="#9EA3AE" stroke-width="1.33333" stroke-linecap="round" stroke-linejoin="round"/>
<path d="M12.3332 5.10016C12.3332 5.70683 12.1665 6.26683 11.8732 6.74683C11.1598 7.92016 9.69317 8.66683 7.99984 8.66683C6.3065 8.66683 4.83984 7.92016 4.12651 6.74683C3.83317 6.26683 3.6665 5.70683 3.6665 5.10016C3.6665 4.06016 4.15317 3.12016 4.93317 2.44016C5.71983 1.7535 6.79984 1.3335 7.99984 1.3335C9.19984 1.3335 10.2798 1.7535 11.0665 2.4335C11.8465 3.12016 12.3332 4.06016 12.3332 5.10016Z" stroke="#9EA3AE" stroke-width="1.33333" stroke-linecap="round" stroke-linejoin="round"/>
<path d="M12.3332 5.10016V8.4335C12.3332 10.5135 10.3932 12.0002 7.99984 12.0002C5.6065 12.0002 3.6665 10.5135 3.6665 8.4335V5.10016C3.6665 3.02016 5.6065 1.3335 7.99984 1.3335C9.19984 1.3335 10.2798 1.7535 11.0665 2.4335C11.8465 3.12016 12.3332 4.06016 12.3332 5.10016Z" stroke="#9EA3AE" stroke-width="1.33333" stroke-linecap="round" stroke-linejoin="round"/>
</svg>
