<svg width="51" height="51" viewBox="0 0 51 51" fill="none" xmlns="http://www.w3.org/2000/svg">
<rect opacity="0.18" x="0.5" y="0.5" width="50" height="50" rx="6" fill="#27AE60"/>
<path d="M35.1911 20.7417C35.9748 20.7417 36.6994 20.7395 37.424 20.7417C39.1184 20.7494 39.8769 21.8166 39.3187 23.4234C37.9965 27.2237 36.6698 31.0219 35.3366 34.819C34.866 36.1587 33.7637 36.9315 32.3386 36.9326C26.1006 36.9348 19.8627 36.9348 13.6247 36.9326C12.2051 36.9315 11.5067 36.243 11.5045 34.8157C11.498 29.2706 11.4991 23.7266 11.5045 18.1815C11.5056 16.9906 12.2434 16.2397 13.4354 16.1894C13.6718 16.1795 13.9093 16.1861 14.1468 16.1839C14.6219 16.1795 14.9273 15.9486 15.1024 15.5085C15.7493 13.8798 16.3141 13.5 18.0577 13.5C18.8053 13.5 19.5529 13.5 20.3016 13.5C21.3995 13.5 22.2718 13.951 22.9319 14.8211C23.0205 14.9372 23.1157 15.0499 23.1891 15.1747C23.6433 15.954 24.3274 16.208 25.2119 16.197C27.783 16.1653 30.3552 16.1839 32.9264 16.1861C34.5102 16.1872 35.1878 16.868 35.1911 18.4497C35.1922 19.194 35.1911 19.9372 35.1911 20.7417ZM22.9953 35.4035C26.0788 35.4035 29.1611 35.4046 32.2445 35.4035C33.1595 35.4035 33.6324 35.074 33.929 34.2268C35.2425 30.4812 36.5538 26.7345 37.864 22.9867C38.0928 22.3332 38.0457 22.2686 37.3485 22.2686C31.1641 22.2675 24.9809 22.2675 18.7966 22.2686C17.9308 22.2686 17.4426 22.6112 17.1547 23.4321C15.8336 27.1942 14.5157 30.9584 13.1989 34.7227C12.9767 35.3586 13.0096 35.4024 13.6926 35.4024C16.7935 35.4046 19.8944 35.4035 22.9953 35.4035ZM33.674 20.7417C33.674 19.9306 33.6762 19.2038 33.674 18.4759C33.6718 17.7546 33.6204 17.7032 32.8936 17.7021C30.213 17.701 27.5323 17.6988 24.8517 17.7032C23.7101 17.7053 22.8104 17.2456 22.1427 16.324C21.9818 16.1029 21.8647 15.8161 21.6501 15.6749C21.2561 15.4144 20.8204 15.1035 20.3771 15.0587C19.4566 14.9645 18.5196 15.0335 17.5903 15.0291C17.1087 15.0269 16.8154 15.2623 16.6424 15.7034C16.012 17.3102 15.4658 17.6813 13.7353 17.7021C13.0796 17.7108 13.0315 17.7579 13.0315 18.4321C13.0304 22.2434 13.0304 26.0547 13.0325 29.866C13.0325 30.0094 13.0533 30.1528 13.0654 30.2973C13.9837 27.8695 14.8298 25.4462 15.677 23.025C16.2178 21.4794 17.2543 20.7417 18.8874 20.7417C23.5744 20.7406 28.2613 20.7417 32.9483 20.7417C33.165 20.7417 33.3817 20.7417 33.674 20.7417Z" fill="#27AE60"/>
</svg>
