<svg width="8" height="10" viewBox="0 0 8 10" fill="none" xmlns="http://www.w3.org/2000/svg">
<path d="M2.14054 8.22623C2.17507 8.13708 2.19837 8.04145 2.24531 7.95946C3.64972 5.52184 5.05696 3.08545 6.46314 0.648851C6.49519 0.593323 6.52712 0.53733 6.55977 0.482143C6.72535 0.200086 6.931 0.116019 7.14697 0.24191C7.36282 0.367335 7.3926 0.58656 7.2287 0.871163C5.79059 3.36376 4.35189 5.85601 2.91318 8.34827C2.86612 8.42979 2.82214 8.51348 2.74236 8.65919C3.05847 8.54203 3.31627 8.44949 3.57245 8.35088C4.7716 7.88826 5.96967 7.42342 7.16823 6.96045C7.25052 6.92842 7.33424 6.898 7.42036 6.87841C7.61941 6.83307 7.77343 6.90665 7.85353 7.09192C7.93824 7.28694 7.89046 7.46452 7.70236 7.56935C7.54949 7.65476 7.37929 7.71085 7.21505 7.77433C5.58884 8.40032 3.96204 9.02598 2.33536 9.6521C2.23808 9.68965 2.14301 9.7336 2.04463 9.76895C1.72345 9.88397 1.50298 9.76178 1.44808 9.42645C1.34357 8.79231 1.24816 8.15674 1.1489 7.5217C0.947659 6.23587 0.746883 4.94991 0.545642 3.66408C0.535685 3.60083 0.521627 3.53719 0.519498 3.47334C0.512783 3.24144 0.648278 3.07631 0.860898 3.05179C1.05892 3.02869 1.23257 3.14945 1.27351 3.37117C1.35122 3.78978 1.41366 4.21098 1.47947 4.63177C1.65391 5.74302 1.82682 6.85418 2.00172 7.96531C2.01415 8.04337 2.03521 8.12012 2.05243 8.1974C2.08183 8.2065 2.11089 8.21619 2.14054 8.22623Z" fill="#EB5757"/>
</svg>
