<svg width="8" height="8" viewBox="0 0 8 8" fill="none" xmlns="http://www.w3.org/2000/svg">
<path d="M7.01626 1.46822C6.95983 1.54539 6.91257 1.63173 6.84602 1.69878C4.85856 3.68985 2.86868 5.679 0.879776 7.66863C0.834442 7.71397 0.789108 7.75979 0.743291 7.80465C0.510352 8.03424 0.289952 8.06222 0.113921 7.88472C-0.0621102 7.7077 -0.0341381 7.48824 0.197837 7.25575C2.23208 5.2203 4.2668 3.18533 6.30153 1.15036C6.36808 1.0838 6.43222 1.01434 6.547 0.894243C6.21134 0.925594 5.93837 0.948264 5.6654 0.977204C4.38737 1.1137 3.10982 1.25262 1.83227 1.3896C1.7445 1.39925 1.65576 1.40696 1.5675 1.40359C1.3635 1.39587 1.23377 1.28493 1.20435 1.08525C1.173 0.874949 1.26511 0.715779 1.47394 0.663204C1.6437 0.620277 1.82263 0.610148 1.99769 0.591337C3.73051 0.407567 5.46381 0.22428 7.19711 0.0405106C7.3008 0.0294169 7.40401 0.0115706 7.50818 0.00288853C7.84819 -0.0250869 8.02952 0.150001 7.99576 0.488117C7.93258 1.12769 7.86024 1.7663 7.79176 2.4054C7.65335 3.6995 7.51445 4.9936 7.37604 6.28771C7.36929 6.35138 7.36639 6.41649 7.35192 6.47871C7.29839 6.70444 7.12477 6.82889 6.91305 6.79753C6.7158 6.76859 6.57932 6.60701 6.59716 6.38224C6.63044 5.95779 6.67915 5.53478 6.72448 5.11129C6.8436 3.99276 6.96417 2.87471 7.08281 1.75617C7.09101 1.67755 7.09053 1.59797 7.09391 1.51887C7.06786 1.50247 7.0423 1.48558 7.01626 1.46822Z" fill="#27AE60"/>
</svg>
