<svg width="51" height="51" viewBox="0 0 51 51" fill="none" xmlns="http://www.w3.org/2000/svg">
<rect opacity="0.18" x="0.25" y="0.5" width="50" height="50" rx="6" fill="#0A82FD"/>
<path d="M24.3358 31.1526C21.2694 30.4018 20.3453 27.8103 20.5959 25.9997C20.9215 23.6534 22.8694 21.9393 25.1967 21.9207C27.5662 21.9021 29.5199 23.5779 29.8971 25.9544C30.2707 28.3065 28.7621 30.3786 25.9159 31.2258C27.9961 31.5337 29.5937 32.41 30.7251 33.8173C31.8543 33.2816 32.9248 32.7726 33.9134 32.3031C31.8484 31.3896 30.9371 29.9323 31.3764 28.0916C31.7606 26.4774 33.268 25.3478 34.9558 25.4105C36.5956 25.471 38.0445 26.754 38.2635 28.3379C38.5224 30.2136 37.5525 31.6441 35.4759 32.3554C35.6539 32.4158 35.7628 32.4669 35.8776 32.4913C38.4978 33.0422 40.2418 35.177 40.2512 37.8487C40.257 39.3571 40.257 39.3571 38.7461 39.3571C29.6476 39.3571 20.5479 39.3571 11.4494 39.3571C10.3086 39.3571 10.25 39.3002 10.25 38.1822C10.25 35.0829 11.7574 33.1921 14.811 32.46C14.8613 32.4483 14.9035 32.4042 14.9585 32.3693C12.7355 31.3641 11.8406 29.9312 12.2751 28.0939C12.6617 26.4599 14.2031 25.3211 15.9108 25.4117C17.526 25.4965 18.9468 26.7725 19.1634 28.3344C19.4246 30.2113 18.4501 31.6511 16.5468 32.2961C17.5529 32.7656 18.6176 33.263 19.6929 33.765C20.3148 33.2792 20.9906 32.6203 21.7848 32.1694C22.5789 31.7197 23.4937 31.478 24.3358 31.1526ZM31.08 38.1706C31.1398 36.109 29.9041 34.0393 27.9961 33.0736C25.8854 32.0044 23.8041 32.1322 21.8621 33.478C20.2469 34.5971 19.4621 36.188 19.3954 38.1706C23.3238 38.1706 27.1797 38.1706 31.08 38.1706ZM28.7621 26.5541C28.7551 24.6435 27.1762 23.0851 25.2482 23.0851C23.3203 23.0851 21.7426 24.6447 21.7367 26.5564C21.7309 28.4925 23.325 30.0672 25.2799 30.0544C27.2043 30.0404 28.7691 28.4669 28.7621 26.5541ZM18.0987 38.1625C18.3072 37.3002 18.4033 36.4379 18.7336 35.6744C19.0065 35.0422 18.8753 34.7133 18.3529 34.4042C18.2358 34.3356 18.1292 34.2485 18.0109 34.1834C16.4262 33.3176 14.8379 33.2816 13.3117 34.2787C11.9331 35.1805 11.3159 36.4867 11.4424 38.1625C13.7076 38.1625 15.9377 38.1625 18.0987 38.1625ZM39.0459 38.1694C39.1724 36.2856 38.3139 34.7795 36.7045 33.9951C35.121 33.2223 33.1497 33.4803 31.8496 34.6517C31.7137 34.7737 31.5591 35.0189 31.5954 35.1607C31.8507 36.1578 32.1553 37.1433 32.454 38.1706C34.5763 38.1694 36.7912 38.1694 39.0459 38.1694ZM18.0238 28.9701C18.066 27.6848 17.0516 26.6098 15.762 26.575C14.4947 26.5401 13.4359 27.5244 13.3785 28.7888C13.3199 30.0764 14.3179 31.1607 15.6086 31.2118C16.897 31.263 17.9816 30.2566 18.0238 28.9701ZM32.4739 28.9167C32.4868 30.202 33.5491 31.2339 34.8375 31.2142C36.1037 31.1944 37.1227 30.1648 37.1274 28.9015C37.1309 27.6174 36.0814 26.5703 34.793 26.5738C33.5034 26.5785 32.461 27.6325 32.4739 28.9167Z" fill="#0A82FD"/>
<path d="M28.3252 19.6151C28.3299 20.2635 27.9434 20.5204 27.4269 20.2752C26.8471 19.9997 26.2755 19.7046 25.7215 19.3815C25.3853 19.1862 25.1066 19.163 24.7599 19.3687C24.2257 19.6871 23.6729 19.9811 23.1025 20.2263C22.887 20.3193 22.5239 20.3449 22.3658 20.224C22.2053 20.102 22.1983 19.7627 22.1573 19.514C22.1374 19.3873 22.1678 19.2385 22.2158 19.1154C22.7804 17.6883 22.3412 16.604 21.0879 15.7824C20.9602 15.6987 20.856 15.5744 20.7552 15.457C20.3933 15.0328 20.5222 14.568 21.0715 14.4564C21.7579 14.317 22.463 14.2658 23.1482 14.1194C23.3707 14.0718 23.6261 13.887 23.7408 13.6917C24.0723 13.1246 24.3148 12.5064 24.6462 11.9393C24.7645 11.7359 25.0398 11.4953 25.2389 11.4988C25.4415 11.5023 25.6957 11.7498 25.8257 11.9555C26.0729 12.346 26.3013 12.7655 26.4406 13.2025C26.6761 13.937 27.1633 14.2194 27.9047 14.2391C28.3498 14.2507 28.8031 14.3146 29.2341 14.4262C29.4684 14.4866 29.7788 14.6586 29.8444 14.8515C29.9088 15.0386 29.7636 15.3675 29.6066 15.5442C29.1943 16.0067 28.741 16.4378 28.2725 16.8469C27.9879 17.0956 27.9106 17.3466 27.9891 17.7115C28.1308 18.3728 28.2268 19.0445 28.3252 19.6151ZM28.057 15.536C28.0184 15.4965 27.9797 15.457 27.941 15.4163C27.5569 15.3582 27.1739 15.2757 26.7873 15.249C26.2802 15.213 25.9686 14.9817 25.7847 14.5087C25.6442 14.1473 25.4322 13.8138 25.2518 13.4686C25.2038 13.4477 25.1546 13.4256 25.1065 13.4047C24.8746 14.9341 23.8931 15.4663 22.4138 15.4442C23.7092 16.2577 24.0442 17.3106 23.3918 18.7156C24.1086 18.4007 24.6697 17.9637 25.233 17.9602C25.7847 17.9567 26.3399 18.3937 27.0802 18.7191C26.3996 17.2804 26.7686 16.2577 28.057 15.536Z" fill="#0A82FD"/>
<path d="M16.9392 23.3548C16.5655 23.1677 16.1029 22.9643 15.673 22.7086C15.3673 22.5273 15.1214 22.5192 14.8203 22.7109C14.4935 22.919 14.141 23.0921 13.7861 23.249C13.2169 23.5 12.712 23.1584 12.9006 22.5878C13.2836 21.4268 13.0154 20.5575 12.0139 19.8545C11.8582 19.7452 11.7528 19.385 11.8137 19.2025C11.8746 19.0212 12.1756 18.7969 12.3665 18.8004C13.5694 18.8237 14.319 18.3042 14.6751 17.1549C14.736 16.9596 15.0581 16.7411 15.2713 16.7284C15.4517 16.7179 15.762 16.955 15.8194 17.1421C16.1732 18.2833 16.9029 18.8341 18.1175 18.8004C18.3084 18.7958 18.6094 19.0166 18.6727 19.1967C18.7359 19.378 18.6352 19.7382 18.4818 19.8486C17.4873 20.5575 17.191 21.4315 17.6033 22.5889C17.7474 22.9887 17.5155 23.299 16.9392 23.3548ZM13.5788 19.8289C14.3671 20.303 14.5053 20.9143 14.2464 21.7011C14.907 21.127 15.5512 21.2083 16.2423 21.6418C15.9237 20.8481 16.2364 20.2926 16.8221 19.7743C15.9295 19.8498 15.5196 19.3524 15.2666 18.6249C14.702 19.5756 14.702 19.5756 13.5788 19.8289Z" fill="#0A82FD"/>
<path d="M36.8592 23.3548C36.4856 23.1665 36.0229 22.9643 35.593 22.7086C35.2873 22.5262 35.0414 22.5215 34.7404 22.7121C34.4136 22.9201 34.061 23.0933 33.7061 23.2502C33.1369 23.5012 32.6321 23.1572 32.8218 22.5866C33.206 21.4245 32.9342 20.5564 31.9351 19.8533C31.7794 19.7441 31.6751 19.3838 31.736 19.2013C31.7969 19.0201 32.0979 18.7969 32.29 18.8004C33.4941 18.8248 34.2414 18.3019 34.5986 17.1537C34.6595 16.9585 34.9816 16.74 35.196 16.7284C35.3764 16.7179 35.6867 16.9561 35.7441 17.1421C36.0967 18.2856 36.8287 18.8318 38.0434 18.7993C38.2343 18.7946 38.5353 19.0154 38.5974 19.1967C38.6595 19.378 38.5599 19.7382 38.4053 19.8475C37.4097 20.5552 37.1169 21.4315 37.528 22.5878C37.6674 22.9899 37.4343 23.3001 36.8592 23.3548ZM35.1515 18.4948C34.9207 19.428 34.4218 19.8033 33.5749 19.8022C34.2742 20.2984 34.4335 20.9027 34.1664 21.6918C34.8305 21.1432 35.4724 21.1909 36.1588 21.6511C35.8636 20.862 36.1318 20.2937 36.7491 19.7812C35.8589 19.844 35.4338 19.3652 35.1515 18.4948Z" fill="#0A82FD"/>
<path d="M29.5281 36.5646C29.4543 36.6494 29.3371 36.9097 29.1661 36.9504C28.9682 36.998 28.6531 36.9213 28.5114 36.7784C28.0112 36.2787 27.5416 35.7441 27.1105 35.1851C26.9875 35.0259 26.9489 34.6994 27.0309 34.5216C27.0988 34.3728 27.4057 34.2392 27.5954 34.2531C28.1729 34.2938 29.5117 35.8429 29.5281 36.5646Z" fill="#0A82FD"/>
<path d="M25.3677 33.4617C25.5199 33.6872 25.7987 33.9184 25.7882 34.1369C25.78 34.331 25.4508 34.5111 25.2646 34.697C25.0678 34.5018 24.7539 34.3286 24.7094 34.1044C24.6743 33.9277 24.9706 33.686 25.1205 33.4733C25.2037 33.4698 25.2857 33.4652 25.3677 33.4617Z" fill="#0A82FD"/>
</svg>
