<svg width="50" height="51" viewBox="0 0 50 51" fill="none" xmlns="http://www.w3.org/2000/svg">
<rect opacity="0.18" y="0.5" width="50" height="50" rx="6" fill="#F2994A"/>
<path d="M39.0001 25.5098C39.0001 29.2088 39.0012 32.9078 39.0001 36.6068C38.999 38.4897 37.9834 39.4989 36.0887 39.4989C28.6905 39.5 21.2923 39.5 13.894 39.4989C12.0114 39.4989 11.0023 38.482 11.0023 36.5872C11.0001 29.1892 11.0001 21.7912 11.0012 14.3932C11.0012 12.5103 12.018 11.5011 13.9126 11.5011C21.3108 11.5 28.7091 11.5 36.1073 11.5011C37.9899 11.5011 38.999 12.518 38.999 14.4128C39.0012 18.1118 39.0001 21.8108 39.0001 25.5098ZM12.2847 17.8888C12.2847 18.1042 12.2847 18.2671 12.2847 18.43C12.2847 24.4984 12.2836 30.5658 12.2858 36.6342C12.2858 37.7987 12.7013 38.2152 13.8667 38.2152C21.2835 38.2174 28.7003 38.2163 36.116 38.2152C37.311 38.2152 37.7144 37.8052 37.7155 36.5981C37.7166 30.5669 37.7166 24.5356 37.7166 18.5033C37.7166 18.3087 37.7166 18.114 37.7166 17.8899C29.2218 17.8888 20.7937 17.8888 12.2847 17.8888ZM37.7155 16.5581C37.7155 15.8518 37.7155 15.1804 37.7155 14.5091C37.7144 13.1554 37.3482 12.7848 36.0056 12.7848C28.6664 12.7848 21.3272 12.7848 13.987 12.7858C13.7683 12.7858 13.5475 12.7815 13.3332 12.811C12.8161 12.8821 12.3459 13.2954 12.3219 13.8093C12.2793 14.7135 12.3099 15.6222 12.3099 16.5581C20.7828 16.5581 29.224 16.5581 37.7155 16.5581Z" fill="#F2994A"/>
<path d="M30.2768 25.5011C29.3147 25.5011 28.3209 25.5022 27.3272 25.5C27.1457 25.5 26.9183 25.5514 26.7925 25.4639C26.5914 25.3251 26.3399 25.0943 26.329 24.891C26.3181 24.6931 26.5695 24.4667 26.7357 24.2808C26.7925 24.2174 26.9423 24.2207 27.0495 24.2207C28.6533 24.2174 30.2571 24.2076 31.861 24.224C32.4186 24.2295 32.6394 24.4777 32.6427 25.0561C32.6514 26.6229 32.646 28.1909 32.646 29.7577C32.646 30.1842 32.517 30.5253 32.0272 30.5658C31.6172 30.5997 31.3646 30.2935 31.3592 29.7555C31.3493 28.8622 31.3581 27.97 31.3548 27.0767C31.3548 26.9039 31.3395 26.7301 31.3286 26.472C31.123 26.6645 30.9787 26.7924 30.8431 26.928C28.9223 28.8469 27.0025 30.768 25.0816 32.687C24.4824 33.2851 24.2474 33.2829 23.6373 32.6739C21.278 30.3165 18.9198 27.958 16.5627 25.5984C16.4468 25.4825 16.2686 25.3677 16.2489 25.2332C16.2107 24.973 16.168 24.6045 16.3102 24.4569C16.4512 24.3093 16.824 24.3301 17.082 24.3694C17.2318 24.3924 17.3597 24.5903 17.4876 24.7182C19.6283 26.8558 21.7667 28.9956 23.9063 31.1343C24.0462 31.2743 24.1916 31.4066 24.2857 31.4963C26.2918 29.4866 28.2772 27.5009 30.2768 25.5011Z" fill="#F2994A"/>
<path d="M14.0755 15.4067C13.9017 15.1717 13.6251 14.9541 13.5781 14.696C13.5125 14.3352 13.7891 14.0739 14.1674 14.064C14.5456 14.0553 14.8353 14.2991 14.7872 14.6643C14.7534 14.9246 14.4899 15.1553 14.3281 15.4002C14.245 15.4024 14.1608 15.4046 14.0755 15.4067Z" fill="#F2994A"/>
<path d="M17.4395 14.8218C17.2001 14.9858 16.9749 15.2548 16.7191 15.2887C16.3605 15.3368 16.1167 15.0678 16.1189 14.6742C16.121 14.2751 16.3845 14.0225 16.7344 14.0761C16.9891 14.1143 17.2078 14.3921 17.4428 14.5626C17.4417 14.649 17.4406 14.7354 17.4395 14.8218Z" fill="#F2994A"/>
<path d="M19.9727 14.8535C19.7278 15.0066 19.4916 15.2646 19.2347 15.2865C18.875 15.3182 18.6378 15.0394 18.6586 14.6479C18.6793 14.2554 18.9483 14.0083 19.3014 14.0794C19.5539 14.1307 19.7606 14.4118 19.9869 14.5911C19.9825 14.6796 19.977 14.766 19.9727 14.8535Z" fill="#F2994A"/>
</svg>
