<svg width="204" height="48" viewBox="0 0 204 48" fill="none" xmlns="http://www.w3.org/2000/svg">
<mask id="mask0_3165_11502" style="mask-type:luminance" maskUnits="userSpaceOnUse" x="0" y="0" width="50" height="48">
<path d="M15.4721 0C6.92711 0 0 6.92711 0 15.4721V32.5279C0 41.0729 6.92711 48 15.4721 48H33.9898C42.5348 48 49.4619 41.0729 49.4619 32.5279V15.4721C49.4619 6.92711 42.5348 0 33.9898 0H15.4721Z" fill="white"/>
</mask>
<g mask="url(#mask0_3165_11502)">
<path d="M5.78607 63.8969L-15.4265 5.61462L43.676 -15.8968L64.8886 42.3854L5.78607 63.8969Z" fill="url(#paint0_linear_3165_11502)"/>
</g>
<mask id="mask1_3165_11502" style="mask-type:luminance" maskUnits="userSpaceOnUse" x="11" y="26" width="27" height="22">
<path d="M11.3665 26.2327V47.4493C12.6741 47.8083 14.0507 48 15.472 48H33.9898C35.2048 48 36.3857 47.8603 37.5204 47.5955V26.2327H11.3665Z" fill="white"/>
</mask>
<g mask="url(#mask1_3165_11502)">
<path d="M37.5204 26.2327H11.3665V48H37.5204V26.2327Z" fill="url(#paint1_linear_3165_11502)"/>
</g>
<mask id="mask2_3165_11502" style="mask-type:luminance" maskUnits="userSpaceOnUse" x="0" y="0" width="50" height="48">
<path d="M15.4721 0C6.92711 0 0 6.92711 0 15.4721V32.5279C0 41.0729 6.92711 48 15.4721 48H33.9898C42.5348 48 49.4619 41.0729 49.4619 32.5279V15.4721C49.4619 6.92711 42.5348 0 33.9898 0H15.4721Z" fill="white"/>
</mask>
<g mask="url(#mask2_3165_11502)">
<path d="M34.3374 42.2709C34.3374 43.957 32.9705 45.3231 31.2852 45.3231C29.5991 45.3231 28.4799 43.9773 28.233 42.2709C27.991 40.6027 29.6162 39.2504 31.2852 39.2187C32.9705 39.1862 34.3374 40.5856 34.3374 42.2709Z" fill="#BAC9C4"/>
</g>
<mask id="mask3_3165_11502" style="mask-type:luminance" maskUnits="userSpaceOnUse" x="0" y="0" width="50" height="48">
<path d="M15.4721 0C6.92711 0 0 6.92711 0 15.4721V32.5279C0 41.0729 6.92711 48 15.4721 48H33.9898C42.5348 48 49.4619 41.0729 49.4619 32.5279V15.4721C49.4619 6.92711 42.5348 0 33.9898 0H15.4721Z" fill="white"/>
</mask>
<g mask="url(#mask3_3165_11502)">
<path d="M38.3399 40.5076C37.7397 41.2752 36.8049 41.7682 35.7548 41.7682C33.9428 41.7682 32.4744 40.2997 32.4744 38.4877C32.4744 36.6758 33.9428 35.2073 35.7548 35.2073C36.8244 35.2073 37.7747 35.7198 38.3741 36.5117C38.7899 37.0607 38.7761 39.9505 38.3399 40.5076Z" fill="#BAC9C4"/>
</g>
<mask id="mask4_3165_11502" style="mask-type:luminance" maskUnits="userSpaceOnUse" x="0" y="0" width="50" height="48">
<path d="M15.4721 0C6.92711 0 0 6.92711 0 15.4721V32.5279C0 41.0729 6.92711 48 15.4721 48H33.9898C42.5348 48 49.4619 41.0729 49.4619 32.5279V15.4721C49.4619 6.92711 42.5348 0 33.9898 0H15.4721Z" fill="white"/>
</mask>
<g mask="url(#mask4_3165_11502)">
<path d="M18.5308 36.4305C18.5308 39.0392 16.4159 41.1541 13.8072 41.1541C12.679 41.1541 11.6443 40.7586 10.8321 40.0999C9.76574 39.2341 10.3643 33.5667 11.3617 32.7009C12.1909 31.9813 12.623 31.7076 13.8072 31.7076C16.4159 31.7068 18.5308 33.8218 18.5308 36.4305Z" fill="#BAC9C4"/>
</g>
<mask id="mask5_3165_11502" style="mask-type:luminance" maskUnits="userSpaceOnUse" x="0" y="0" width="50" height="48">
<path d="M15.4721 0C6.92711 0 0 6.92711 0 15.4721V32.5279C0 41.0729 6.92711 48 15.4721 48H33.9898C42.5348 48 49.4619 41.0729 49.4619 32.5279V15.4721C49.4619 6.92711 42.5348 0 33.9898 0H15.4721Z" fill="white"/>
</mask>
<g mask="url(#mask5_3165_11502)">
<path d="M37.5204 48.7976H11.3665V26.2327H37.5204V48.7976ZM38.8435 24.9097H37.5204H11.3665H10.0435V26.2327V48.7976V50.1206H11.3665H37.5204H38.8435V48.7976V26.2327V24.9097Z" fill="#112033"/>
</g>
<mask id="mask6_3165_11502" style="mask-type:luminance" maskUnits="userSpaceOnUse" x="7" y="1" width="35" height="33">
<path d="M7.13013 17.5237C7.13013 26.2579 14.7833 33.3385 24.2241 33.3385C33.665 33.3385 41.3181 26.2579 41.3181 17.5237C41.3181 8.78947 33.665 1.70886 24.2241 1.70886C14.7841 1.70886 7.13013 8.78947 7.13013 17.5237Z" fill="white"/>
</mask>
<g mask="url(#mask6_3165_11502)">
<path d="M41.319 1.70886H7.13013V33.3385H41.319V1.70886Z" fill="url(#paint2_linear_3165_11502)"/>
</g>
<mask id="mask7_3165_11502" style="mask-type:luminance" maskUnits="userSpaceOnUse" x="0" y="0" width="50" height="48">
<path d="M15.4721 0C6.92711 0 0 6.92711 0 15.4721V32.5279C0 41.0729 6.92711 48 15.4721 48H33.9898C42.5348 48 49.4619 41.0729 49.4619 32.5279V15.4721C49.4619 6.92711 42.5348 0 33.9898 0H15.4721Z" fill="white"/>
</mask>
<g mask="url(#mask7_3165_11502)">
<path d="M24.2249 3.00835C26.3698 3.00835 28.449 3.39658 30.4056 4.16165C32.289 4.89912 33.98 5.95252 35.4306 7.29424C38.3902 10.0321 40.0202 13.665 40.0202 17.5229C40.0202 21.3807 38.3902 25.0136 35.4306 27.7515C33.98 29.0932 32.2898 30.1474 30.4056 30.8849C28.4498 31.65 26.3698 32.0382 24.2249 32.0382C22.0799 32.0382 20.0007 31.65 18.0442 30.8849C16.1607 30.1474 14.4697 29.0932 13.0192 27.7515C10.0596 25.0136 8.42954 21.3807 8.42954 17.5229C8.42954 13.665 10.0596 10.0321 13.0192 7.29424C14.4697 5.95252 16.1599 4.8983 18.0442 4.16165C20.0007 3.39658 22.0799 3.00835 24.2249 3.00835ZM24.2249 1.70886C14.7841 1.70886 7.13086 8.78947 7.13086 17.5237C7.13086 26.2579 14.7841 33.3385 24.2249 33.3385C33.6657 33.3385 41.3189 26.2579 41.3189 17.5237C41.3189 8.78947 33.6657 1.70886 24.2249 1.70886Z" fill="#112033"/>
</g>
<mask id="mask8_3165_11502" style="mask-type:luminance" maskUnits="userSpaceOnUse" x="0" y="0" width="50" height="48">
<path d="M15.4721 0C6.92711 0 0 6.92711 0 15.4721V32.5279C0 41.0729 6.92711 48 15.4721 48H33.9898C42.5348 48 49.4619 41.0729 49.4619 32.5279V15.4721C49.4619 6.92711 42.5348 0 33.9898 0H15.4721Z" fill="white"/>
</mask>
<g mask="url(#mask8_3165_11502)">
<path d="M41.2986 16.7562C40.8827 23.9464 33.3977 27.7702 24.2232 27.7702C15.061 27.7702 7.58324 23.9562 7.14954 16.7854C7.13736 17.0307 7.13086 17.2768 7.13086 17.5237C7.13086 26.2579 14.7841 33.3385 24.2249 33.3385C33.6657 33.3385 41.3189 26.2579 41.3189 17.5237C41.3189 17.2662 41.3116 17.0104 41.2986 16.7562Z" fill="#BCCCCB"/>
</g>
<mask id="mask9_3165_11502" style="mask-type:luminance" maskUnits="userSpaceOnUse" x="0" y="0" width="50" height="48">
<path d="M15.4721 0C6.92711 0 0 6.92711 0 15.4721V32.5279C0 41.0729 6.92711 48 15.4721 48H33.9898C42.5348 48 49.4619 41.0729 49.4619 32.5279V15.4721C49.4619 6.92711 42.5348 0 33.9898 0H15.4721Z" fill="white"/>
</mask>
<g mask="url(#mask9_3165_11502)">
<path d="M24.2249 3.00835C26.3698 3.00835 28.449 3.39658 30.4056 4.16165C32.289 4.89912 33.98 5.95252 35.4306 7.29424C38.3902 10.0321 40.0202 13.665 40.0202 17.5229C40.0202 21.3807 38.3902 25.0136 35.4306 27.7515C33.98 29.0932 32.2898 30.1474 30.4056 30.8849C28.4498 31.65 26.3698 32.0382 24.2249 32.0382C22.0799 32.0382 20.0007 31.65 18.0442 30.8849C16.1607 30.1474 14.4697 29.0932 13.0192 27.7515C10.0596 25.0136 8.42954 21.3807 8.42954 17.5229C8.42954 13.665 10.0596 10.0321 13.0192 7.29424C14.4697 5.95252 16.1599 4.8983 18.0442 4.16165C20.0007 3.39658 22.0799 3.00835 24.2249 3.00835ZM24.2249 1.70886C14.7841 1.70886 7.13086 8.78947 7.13086 17.5237C7.13086 26.2579 14.7841 33.3385 24.2249 33.3385C33.6657 33.3385 41.3189 26.2579 41.3189 17.5237C41.3189 8.78947 33.6657 1.70886 24.2249 1.70886Z" fill="#112033"/>
</g>
<mask id="mask10_3165_11502" style="mask-type:luminance" maskUnits="userSpaceOnUse" x="0" y="0" width="50" height="48">
<path d="M15.4721 0C6.92711 0 0 6.92711 0 15.4721V32.5279C0 41.0729 6.92711 48 15.4721 48H33.9898C42.5348 48 49.4619 41.0729 49.4619 32.5279V15.4721C49.4619 6.92711 42.5348 0 33.9898 0H15.4721Z" fill="white"/>
</mask>
<g mask="url(#mask10_3165_11502)">
<path d="M19.2171 14.1994C19.2171 15.5151 18.1499 16.5824 16.8341 16.5824C15.5184 16.5824 14.4512 15.5151 14.4512 14.1994C14.4512 12.8837 15.5176 11.8165 16.8341 11.8165C18.1507 11.8173 19.2171 12.8837 19.2171 14.1994Z" fill="#112033"/>
</g>
<mask id="mask11_3165_11502" style="mask-type:luminance" maskUnits="userSpaceOnUse" x="0" y="0" width="50" height="48">
<path d="M15.4721 0C6.92711 0 0 6.92711 0 15.4721V32.5279C0 41.0729 6.92711 48 15.4721 48H33.9898C42.5348 48 49.4619 41.0729 49.4619 32.5279V15.4721C49.4619 6.92711 42.5348 0 33.9898 0H15.4721Z" fill="white"/>
</mask>
<g mask="url(#mask11_3165_11502)">
<path d="M19.5809 30.4877C19.5809 34.0248 16.8439 36.8926 13.4684 36.8926C10.093 36.8926 7.35596 34.0248 7.35596 30.4877C7.35596 26.9506 10.093 24.0828 13.4684 24.0828C16.8439 24.0828 19.5809 26.9506 19.5809 30.4877Z" fill="#FEFDF4"/>
</g>
<mask id="mask12_3165_11502" style="mask-type:luminance" maskUnits="userSpaceOnUse" x="0" y="0" width="50" height="48">
<path d="M15.4721 0C6.92711 0 0 6.92711 0 15.4721V32.5279C0 41.0729 6.92711 48 15.4721 48H33.9898C42.5348 48 49.4619 41.0729 49.4619 32.5279V15.4721C49.4619 6.92711 42.5348 0 33.9898 0H15.4721Z" fill="white"/>
</mask>
<g mask="url(#mask12_3165_11502)">
<path d="M13.4684 25.3823C16.1227 25.3823 18.2814 27.6727 18.2814 30.4877C18.2814 33.3027 16.1227 35.5931 13.4684 35.5931C10.8142 35.5931 8.65545 33.3027 8.65545 30.4877C8.65545 27.6727 10.815 25.3823 13.4684 25.3823ZM13.4684 24.0828C10.0922 24.0828 7.35596 26.9506 7.35596 30.4877C7.35596 34.0248 10.0922 36.8926 13.4684 36.8926C16.8447 36.8926 19.5809 34.0248 19.5809 30.4877C19.5809 26.9506 16.8447 24.0828 13.4684 24.0828Z" fill="#112033"/>
</g>
<mask id="mask13_3165_11502" style="mask-type:luminance" maskUnits="userSpaceOnUse" x="0" y="0" width="50" height="48">
<path d="M15.4721 0C6.92711 0 0 6.92711 0 15.4721V32.5279C0 41.0729 6.92711 48 15.4721 48H33.9898C42.5348 48 49.4619 41.0729 49.4619 32.5279V15.4721C49.4619 6.92711 42.5348 0 33.9898 0H15.4721Z" fill="white"/>
</mask>
<g mask="url(#mask13_3165_11502)">
<path d="M32.8414 39.0246C32.4426 40.6855 30.7728 41.7088 29.1119 41.31C27.451 40.9113 26.4276 39.2414 26.8264 37.5805L31.3153 22.0914L36.718 23.3194L32.8414 39.0246Z" fill="#FEFDF4"/>
</g>
<mask id="mask14_3165_11502" style="mask-type:luminance" maskUnits="userSpaceOnUse" x="0" y="0" width="50" height="48">
<path d="M15.4721 0C6.92711 0 0 6.92711 0 15.4721V32.5279C0 41.0729 6.92711 48 15.4721 48H33.9898C42.5348 48 49.4619 41.0729 49.4619 32.5279V15.4721C49.4619 6.92711 42.5348 0 33.9898 0H15.4721Z" fill="white"/>
</mask>
<g mask="url(#mask14_3165_11502)">
<path d="M32.2217 23.6305L35.1383 24.2932L31.5793 38.7135L31.5785 38.7176L31.5777 38.7216C31.3836 39.5314 30.6672 40.0966 29.8363 40.0966C29.6958 40.0966 29.5537 40.0796 29.4148 40.0463C28.9494 39.9342 28.5547 39.6483 28.3046 39.2398C28.0593 38.8386 27.9805 38.3675 28.0837 37.9094L32.2217 23.6305ZM31.3153 22.0914L26.8264 37.5805C26.4276 39.2414 27.451 40.9113 29.1119 41.31C29.3547 41.3685 29.5976 41.3961 29.8363 41.3961C31.2333 41.3961 32.5003 40.4426 32.8406 39.0246L36.7172 23.3194L31.3153 22.0914Z" fill="#112033"/>
</g>
<mask id="mask15_3165_11502" style="mask-type:luminance" maskUnits="userSpaceOnUse" x="0" y="0" width="50" height="48">
<path d="M15.4721 0C6.92711 0 0 6.92711 0 15.4721V32.5279C0 41.0729 6.92711 48 15.4721 48H33.9898C42.5348 48 49.4619 41.0729 49.4619 32.5279V15.4721C49.4619 6.92711 42.5348 0 33.9898 0H15.4721Z" fill="white"/>
</mask>
<g mask="url(#mask15_3165_11502)">
<path d="M29.2703 33.8729C28.9357 34.2441 29.211 35.0367 29.4547 35.4843C29.8307 36.1754 30.1637 36.1023 30.7672 36.9576C31.1058 37.4384 31.4072 37.8794 31.274 38.3391C31.1448 38.7842 30.6835 38.9888 30.5836 39.0294C30.0061 39.2666 29.2906 39.0489 28.8796 38.638C28.3923 38.1507 28.5247 37.5846 28.1203 37.4635C27.8506 37.3831 27.5095 37.5504 27.36 37.786C27.2447 37.9687 27.2813 38.2018 27.36 38.6607C27.4526 39.2008 27.4989 39.4713 27.7052 39.7888C27.9343 40.1413 28.2169 40.3314 28.3728 40.4337C28.4459 40.4816 28.77 40.6895 29.2711 40.8024C29.5919 40.8747 30.327 41.0404 31.0206 40.6644C31.3235 40.5003 31.4949 40.2997 31.7345 40.0195C32.2072 39.4664 32.4208 38.9165 32.4939 38.707C32.8074 37.8168 32.4768 37.7559 32.7927 36.7269C32.8553 36.5239 32.9259 36.337 32.839 36.1511C32.7075 35.8717 32.3631 35.909 31.8717 35.7133C30.9946 35.3641 30.4585 34.5941 30.4212 34.5389C30.1207 34.0962 30.076 33.7454 29.7763 33.6869C29.5944 33.6528 29.3897 33.7405 29.2703 33.8729Z" fill="#BCCCCB"/>
</g>
<mask id="mask16_3165_11502" style="mask-type:luminance" maskUnits="userSpaceOnUse" x="0" y="0" width="50" height="48">
<path d="M15.4721 0C6.92711 0 0 6.92711 0 15.4721V32.5279C0 41.0729 6.92711 48 15.4721 48H33.9898C42.5348 48 49.4619 41.0729 49.4619 32.5279V15.4721C49.4619 6.92711 42.5348 0 33.9898 0H15.4721Z" fill="white"/>
</mask>
<g mask="url(#mask16_3165_11502)">
<path d="M32.2217 23.6305L35.1383 24.2932L31.5793 38.7135L31.5785 38.7176L31.5777 38.7216C31.3836 39.5314 30.6672 40.0966 29.8363 40.0966C29.6958 40.0966 29.5537 40.0796 29.4148 40.0463C28.9494 39.9342 28.5547 39.6483 28.3046 39.2398C28.0593 38.8386 27.9805 38.3675 28.0837 37.9094L32.2217 23.6305ZM31.3153 22.0914L26.8264 37.5805C26.4276 39.2414 27.451 40.9113 29.1119 41.31C29.3547 41.3685 29.5976 41.3961 29.8363 41.3961C31.2333 41.3961 32.5003 40.4426 32.8406 39.0246L36.7172 23.3194L31.3153 22.0914Z" fill="#112033"/>
</g>
<mask id="mask17_3165_11502" style="mask-type:luminance" maskUnits="userSpaceOnUse" x="0" y="0" width="50" height="48">
<path d="M15.4721 0C6.92711 0 0 6.92711 0 15.4721V32.5279C0 41.0729 6.92711 48 15.4721 48H33.9898C42.5348 48 49.4619 41.0729 49.4619 32.5279V15.4721C49.4619 6.92711 42.5348 0 33.9898 0H15.4721Z" fill="white"/>
</mask>
<g mask="url(#mask17_3165_11502)">
<path d="M23.8596 22.8134C23.7841 22.8134 23.7077 22.8118 23.6314 22.8094C20.6149 22.703 18.8752 20.5491 18.5569 20.1186C18.3173 19.7937 18.3855 19.3365 18.7104 19.0961C19.0352 18.8565 19.4925 18.9247 19.7329 19.2496C19.9814 19.5858 21.3378 21.2654 23.6834 21.3474C26.2953 21.44 27.8312 19.4729 27.9977 19.2479C28.2381 18.9239 28.6961 18.8557 29.0202 19.0961C29.3443 19.3365 29.4125 19.7945 29.1721 20.1186C28.9625 20.4012 27.0791 22.8134 23.8596 22.8134Z" fill="#14182D"/>
</g>
<mask id="mask18_3165_11502" style="mask-type:luminance" maskUnits="userSpaceOnUse" x="0" y="0" width="50" height="48">
<path d="M15.4721 0C6.92711 0 0 6.92711 0 15.4721V32.5279C0 41.0729 6.92711 48 15.4721 48H33.9898C42.5348 48 49.4619 41.0729 49.4619 32.5279V15.4721C49.4619 6.92711 42.5348 0 33.9898 0H15.4721Z" fill="white"/>
</mask>
<g mask="url(#mask18_3165_11502)">
<path d="M34.543 28.6961C34.543 30.8833 32.8504 32.6563 30.7631 32.6563C28.6758 32.6563 26.8208 30.8833 26.8208 28.6961C26.8208 26.5089 28.671 24.8504 30.7631 24.7359C32.848 24.6205 34.543 26.508 34.543 28.6961Z" fill="#FEFDF4"/>
</g>
<mask id="mask19_3165_11502" style="mask-type:luminance" maskUnits="userSpaceOnUse" x="0" y="0" width="50" height="48">
<path d="M15.4721 0C6.92711 0 0 6.92711 0 15.4721V32.5279C0 41.0729 6.92711 48 15.4721 48H33.9898C42.5348 48 49.4619 41.0729 49.4619 32.5279V15.4721C49.4619 6.92711 42.5348 0 33.9898 0H15.4721Z" fill="white"/>
</mask>
<g mask="url(#mask19_3165_11502)">
<path d="M30.9434 25.7048C32.3664 25.7048 33.5684 27.0741 33.5684 28.6961C33.5684 30.3423 32.3103 31.6816 30.7631 31.6816C30.0127 31.6816 29.259 31.3616 28.6945 30.8029C28.1146 30.2295 27.7954 29.4806 27.7954 28.6952C27.7954 27.9253 28.1114 27.1943 28.6864 26.6372C29.2509 26.0898 30.0273 25.7511 30.8167 25.7072C30.859 25.7056 30.9012 25.7048 30.9434 25.7048ZM30.9434 24.7302C30.8833 24.7302 30.8232 24.7318 30.7631 24.735C28.671 24.8504 26.8208 26.508 26.8208 28.6952C26.8208 30.8824 28.6758 32.6554 30.7631 32.6554C32.8504 32.6554 34.543 30.8824 34.543 28.6952C34.543 26.5714 32.9447 24.7302 30.9434 24.7302Z" fill="#112033"/>
</g>
<mask id="mask20_3165_11502" style="mask-type:luminance" maskUnits="userSpaceOnUse" x="0" y="0" width="50" height="48">
<path d="M15.4721 0C6.92711 0 0 6.92711 0 15.4721V32.5279C0 41.0729 6.92711 48 15.4721 48H33.9898C42.5348 48 49.4619 41.0729 49.4619 32.5279V15.4721C49.4619 6.92711 42.5348 0 33.9898 0H15.4721Z" fill="white"/>
</mask>
<g mask="url(#mask20_3165_11502)">
<path d="M40.5887 30.8938C40.5887 34.4309 37.8517 37.2987 34.4763 37.2987C31.1008 37.2987 28.3638 34.4309 28.3638 30.8938C28.3638 27.3568 31.1008 24.489 34.4763 24.489C37.8517 24.489 40.5887 27.3568 40.5887 30.8938Z" fill="#FEFDF4"/>
</g>
<mask id="mask21_3165_11502" style="mask-type:luminance" maskUnits="userSpaceOnUse" x="0" y="0" width="50" height="48">
<path d="M15.4721 0C6.92711 0 0 6.92711 0 15.4721V32.5279C0 41.0729 6.92711 48 15.4721 48H33.9898C42.5348 48 49.4619 41.0729 49.4619 32.5279V15.4721C49.4619 6.92711 42.5348 0 33.9898 0H15.4721Z" fill="white"/>
</mask>
<g mask="url(#mask21_3165_11502)">
<path d="M34.4763 25.7884C37.1305 25.7884 39.2892 28.0788 39.2892 30.8938C39.2892 33.7089 37.1305 35.9992 34.4763 35.9992C31.822 35.9992 29.6633 33.7089 29.6633 30.8938C29.6633 28.0788 31.822 25.7884 34.4763 25.7884ZM34.4763 24.489C31.1 24.489 28.3638 27.3568 28.3638 30.8938C28.3638 34.4309 31.1008 37.2987 34.4763 37.2987C37.8517 37.2987 40.5887 34.4309 40.5887 30.8938C40.5887 27.3568 37.8517 24.489 34.4763 24.489Z" fill="#112033"/>
</g>
<mask id="mask22_3165_11502" style="mask-type:luminance" maskUnits="userSpaceOnUse" x="0" y="0" width="50" height="48">
<path d="M15.4721 0C6.92711 0 0 6.92711 0 15.4721V32.5279C0 41.0729 6.92711 48 15.4721 48H33.9898C42.5348 48 49.4619 41.0729 49.4619 32.5279V15.4721C49.4619 6.92711 42.5348 0 33.9898 0H15.4721Z" fill="white"/>
</mask>
<g mask="url(#mask22_3165_11502)">
<path d="M13.4188 33.7405C10.7102 33.7405 9.02003 31.2341 8.14044 29.4116C7.62308 28.3411 7.4777 29.5659 7.65963 30.5089C8.33942 34.0256 10.2789 36.7911 13.4196 36.7911C16.661 36.7911 18.4836 34.1653 19.1536 30.7777C19.3559 29.756 19.2998 28.4622 18.7987 29.6431C18.0377 31.4388 16.4718 33.7405 13.4188 33.7405Z" fill="#BCCCCB"/>
</g>
<mask id="mask23_3165_11502" style="mask-type:luminance" maskUnits="userSpaceOnUse" x="0" y="0" width="50" height="48">
<path d="M15.4721 0C6.92711 0 0 6.92711 0 15.4721V32.5279C0 41.0729 6.92711 48 15.4721 48H33.9898C42.5348 48 49.4619 41.0729 49.4619 32.5279V15.4721C49.4619 6.92711 42.5348 0 33.9898 0H15.4721Z" fill="white"/>
</mask>
<g mask="url(#mask23_3165_11502)">
<path d="M34.0411 34.1539C31.5184 33.8112 30.2531 31.3267 29.6577 29.5659C29.3077 28.5312 29.021 29.6219 29.0746 30.4991C29.2752 33.7698 30.7412 36.5206 33.6659 36.9178C36.6847 37.3279 38.7046 35.1797 39.7459 32.1966C40.0602 31.2967 40.1666 30.1182 39.555 31.1237C38.625 32.6538 36.8845 34.5405 34.0411 34.1539Z" fill="#BCCCCB"/>
</g>
<mask id="mask24_3165_11502" style="mask-type:luminance" maskUnits="userSpaceOnUse" x="0" y="0" width="50" height="48">
<path d="M15.4721 0C6.92711 0 0 6.92711 0 15.4721V32.5279C0 41.0729 6.92711 48 15.4721 48H33.9898C42.5348 48 49.4619 41.0729 49.4619 32.5279V15.4721C49.4619 6.92711 42.5348 0 33.9898 0H15.4721Z" fill="white"/>
</mask>
<g mask="url(#mask24_3165_11502)">
<path d="M13.4684 25.3823C16.1227 25.3823 18.2814 27.6727 18.2814 30.4877C18.2814 33.3027 16.1227 35.5931 13.4684 35.5931C10.8142 35.5931 8.65545 33.3027 8.65545 30.4877C8.65545 27.6727 10.815 25.3823 13.4684 25.3823ZM13.4684 24.0828C10.0922 24.0828 7.35596 26.9506 7.35596 30.4877C7.35596 34.0248 10.0922 36.8926 13.4684 36.8926C16.8447 36.8926 19.5809 34.0248 19.5809 30.4877C19.5809 26.9506 16.8447 24.0828 13.4684 24.0828Z" fill="#112033"/>
</g>
<mask id="mask25_3165_11502" style="mask-type:luminance" maskUnits="userSpaceOnUse" x="0" y="0" width="50" height="48">
<path d="M15.4721 0C6.92711 0 0 6.92711 0 15.4721V32.5279C0 41.0729 6.92711 48 15.4721 48H33.9898C42.5348 48 49.4619 41.0729 49.4619 32.5279V15.4721C49.4619 6.92711 42.5348 0 33.9898 0H15.4721Z" fill="white"/>
</mask>
<g mask="url(#mask25_3165_11502)">
<path d="M34.4763 25.7884C37.1305 25.7884 39.2892 28.0788 39.2892 30.8938C39.2892 33.7089 37.1305 35.9992 34.4763 35.9992C31.822 35.9992 29.6633 33.7089 29.6633 30.8938C29.6633 28.0788 31.822 25.7884 34.4763 25.7884ZM34.4763 24.489C31.1 24.489 28.3638 27.3568 28.3638 30.8938C28.3638 34.4309 31.1008 37.2987 34.4763 37.2987C37.8517 37.2987 40.5887 34.4309 40.5887 30.8938C40.5887 27.3568 37.8517 24.489 34.4763 24.489Z" fill="#112033"/>
</g>
<mask id="mask26_3165_11502" style="mask-type:luminance" maskUnits="userSpaceOnUse" x="0" y="0" width="50" height="48">
<path d="M15.4721 0C6.92711 0 0 6.92711 0 15.4721V32.5279C0 41.0729 6.92711 48 15.4721 48H33.9898C42.5348 48 49.4619 41.0729 49.4619 32.5279V15.4721C49.4619 6.92711 42.5348 0 33.9898 0H15.4721Z" fill="white"/>
</mask>
<g mask="url(#mask26_3165_11502)">
<path d="M45.7665 13.6496C45.7665 19.4055 41.1005 24.0715 35.3445 24.0715C29.5886 24.0715 24.9226 19.4055 24.9226 13.6496C24.9226 7.89363 29.5886 3.22846 35.3445 3.22846C41.1005 3.22846 45.7665 7.89445 45.7665 13.6496Z" fill="#FEFDF4"/>
</g>
<mask id="mask27_3165_11502" style="mask-type:luminance" maskUnits="userSpaceOnUse" x="0" y="0" width="50" height="48">
<path d="M15.4721 0C6.92711 0 0 6.92711 0 15.4721V32.5279C0 41.0729 6.92711 48 15.4721 48H33.9898C42.5348 48 49.4619 41.0729 49.4619 32.5279V15.4721C49.4619 6.92711 42.5348 0 33.9898 0H15.4721Z" fill="white"/>
</mask>
<g mask="url(#mask27_3165_11502)">
<path d="M35.3445 4.52795C37.7811 4.52795 40.0714 5.47658 41.7949 7.20003C43.5175 8.92267 44.467 11.2138 44.467 13.6504C44.467 16.0869 43.5183 18.3781 41.7949 20.1007C40.0723 21.8234 37.7811 22.7728 35.3445 22.7728C32.908 22.7728 30.6168 21.8242 28.8942 20.1007C27.1715 18.3781 26.2221 16.0869 26.2221 13.6504C26.2221 11.2138 27.1707 8.92348 28.8942 7.20003C30.6176 5.47658 32.908 4.52795 35.3445 4.52795ZM35.3445 3.22846C29.5886 3.22846 24.9226 7.89445 24.9226 13.6504C24.9226 19.4063 29.5886 24.0723 35.3445 24.0723C41.1005 24.0723 45.7665 19.4055 45.7665 13.6496C45.7665 7.89445 41.1005 3.22846 35.3445 3.22846Z" fill="#112033"/>
</g>
<mask id="mask28_3165_11502" style="mask-type:luminance" maskUnits="userSpaceOnUse" x="0" y="0" width="50" height="48">
<path d="M15.4721 0C6.92711 0 0 6.92711 0 15.4721V32.5279C0 41.0729 6.92711 48 15.4721 48H33.9898C42.5348 48 49.4619 41.0729 49.4619 32.5279V15.4721C49.4619 6.92711 42.5348 0 33.9898 0H15.4721Z" fill="white"/>
</mask>
<g mask="url(#mask28_3165_11502)">
<path d="M35.2415 14.1994C35.2415 15.5151 34.1743 16.5824 32.8585 16.5824C31.5428 16.5824 30.4756 15.5151 30.4756 14.1994C30.4756 12.8837 31.542 11.8165 32.8585 11.8165C34.1743 11.8173 35.2415 12.8837 35.2415 14.1994Z" fill="#112033"/>
</g>
<mask id="mask29_3165_11502" style="mask-type:luminance" maskUnits="userSpaceOnUse" x="0" y="0" width="50" height="48">
<path d="M15.4721 0C6.92711 0 0 6.92711 0 15.4721V32.5279C0 41.0729 6.92711 48 15.4721 48H33.9898C42.5348 48 49.4619 41.0729 49.4619 32.5279V15.4721C49.4619 6.92711 42.5348 0 33.9898 0H15.4721Z" fill="white"/>
</mask>
<g mask="url(#mask29_3165_11502)">
<path d="M35.3445 7.35918C38.8125 7.35918 41.6348 10.1807 41.6348 13.6495C41.6348 17.1184 38.8133 19.9399 35.3445 19.9399C31.8757 19.9399 29.0541 17.1184 29.0541 13.6495C29.0541 10.1815 31.8765 7.35918 35.3445 7.35918ZM35.3445 6.05969C31.1528 6.05969 27.7546 9.45786 27.7546 13.6495C27.7546 17.8412 31.1528 21.2394 35.3445 21.2394C39.5362 21.2394 42.9343 17.8412 42.9343 13.6495C42.9343 9.45786 39.5362 6.05969 35.3445 6.05969Z" fill="#112033"/>
</g>
<mask id="mask30_3165_11502" style="mask-type:luminance" maskUnits="userSpaceOnUse" x="0" y="0" width="50" height="48">
<path d="M15.4721 0C6.92711 0 0 6.92711 0 15.4721V32.5279C0 41.0729 6.92711 48 15.4721 48H33.9898C42.5348 48 49.4619 41.0729 49.4619 32.5279V15.4721C49.4619 6.92711 42.5348 0 33.9898 0H15.4721Z" fill="white"/>
</mask>
<g mask="url(#mask30_3165_11502)">
<path d="M40.3973 12.1665C40.3973 12.7342 39.9368 13.1947 39.369 13.1947C38.8013 13.1947 38.3408 12.7342 38.3408 12.1665C38.3408 11.5988 38.8013 11.1382 39.369 11.1382C39.9368 11.1374 40.3973 11.5979 40.3973 12.1665Z" fill="#FEFDF4"/>
</g>
<mask id="mask31_3165_11502" style="mask-type:luminance" maskUnits="userSpaceOnUse" x="0" y="0" width="50" height="48">
<path d="M15.4721 0C6.92711 0 0 6.92711 0 15.4721V32.5279C0 41.0729 6.92711 48 15.4721 48H33.9898C42.5348 48 49.4619 41.0729 49.4619 32.5279V15.4721C49.4619 6.92711 42.5348 0 33.9898 0H15.4721Z" fill="white"/>
</mask>
<g mask="url(#mask31_3165_11502)">
<path d="M33.5057 9.77137C33.5057 10.2887 33.163 10.6461 32.6464 10.6461C32.129 10.6461 31.71 10.227 31.71 9.70964C31.71 9.19228 32.129 8.77319 32.6464 8.77319C32.8738 8.77319 33.0825 8.92994 33.245 9.06477C33.4521 9.23776 33.5057 9.48223 33.5057 9.77137Z" fill="#FEFDF4"/>
</g>
<mask id="mask32_3165_11502" style="mask-type:luminance" maskUnits="userSpaceOnUse" x="0" y="0" width="50" height="48">
<path d="M15.4721 0C6.92711 0 0 6.92711 0 15.4721V32.5279C0 41.0729 6.92711 48 15.4721 48H33.9898C42.5348 48 49.4619 41.0729 49.4619 32.5279V15.4721C49.4619 6.92711 42.5348 0 33.9898 0H15.4721Z" fill="white"/>
</mask>
<g mask="url(#mask32_3165_11502)">
<path d="M36.0236 10.6242C35.5314 10.6242 35.0384 10.5202 34.5884 10.3212C34.2213 10.1588 34.0548 9.72916 34.2173 9.36206C34.3797 8.99495 34.8094 8.82845 35.1765 8.99089C35.3754 9.07861 35.6963 9.18094 36.0894 9.16795C36.4857 9.15495 36.8 9.03069 36.9933 8.92835C37.3491 8.74155 37.7884 8.878 37.9761 9.23292C38.1637 9.58866 38.0264 10.028 37.6715 10.2157C37.2004 10.4642 36.6693 10.6047 36.1373 10.6218C36.0991 10.6234 36.0617 10.6242 36.0236 10.6242Z" fill="#FEFDF4"/>
</g>
<path d="M62.9019 22V7.1H65.6219V22H62.9019ZM68.2679 22V11.12H70.7279V13.26L70.5279 12.88C70.7812 12.2267 71.1945 11.7333 71.7679 11.4C72.3545 11.0533 73.0345 10.88 73.8079 10.88C74.6079 10.88 75.3145 11.0533 75.9279 11.4C76.5545 11.7467 77.0412 12.2333 77.3879 12.86C77.7345 13.4733 77.9079 14.1867 77.9079 15V22H75.2879V15.62C75.2879 15.14 75.1945 14.7267 75.0079 14.38C74.8212 14.0333 74.5612 13.7667 74.2279 13.58C73.9079 13.38 73.5279 13.28 73.0879 13.28C72.6612 13.28 72.2812 13.38 71.9479 13.58C71.6145 13.7667 71.3545 14.0333 71.1679 14.38C70.9812 14.7267 70.8879 15.14 70.8879 15.62V22H68.2679ZM84.2633 22.24C83.1033 22.24 82.09 21.9667 81.2233 21.42C80.37 20.86 79.7833 20.1067 79.4633 19.16L81.4233 18.22C81.7033 18.8333 82.09 19.3133 82.5833 19.66C83.09 20.0067 83.65 20.18 84.2633 20.18C84.7433 20.18 85.1233 20.0733 85.4033 19.86C85.6833 19.6467 85.8233 19.3667 85.8233 19.02C85.8233 18.8067 85.7633 18.6333 85.6433 18.5C85.5367 18.3533 85.3833 18.2333 85.1833 18.14C84.9967 18.0333 84.79 17.9467 84.5633 17.88L82.7833 17.38C81.8633 17.1133 81.1633 16.7067 80.6833 16.16C80.2167 15.6133 79.9833 14.9667 79.9833 14.22C79.9833 13.5533 80.15 12.9733 80.4833 12.48C80.83 11.9733 81.3033 11.58 81.9033 11.3C82.5167 11.02 83.2167 10.88 84.0033 10.88C85.03 10.88 85.9367 11.1267 86.7233 11.62C87.51 12.1133 88.07 12.8067 88.4033 13.7L86.4033 14.64C86.2167 14.1467 85.9033 13.7533 85.4633 13.46C85.0233 13.1667 84.53 13.02 83.9833 13.02C83.5433 13.02 83.1967 13.12 82.9433 13.32C82.69 13.52 82.5633 13.78 82.5633 14.1C82.5633 14.3 82.6167 14.4733 82.7233 14.62C82.83 14.7667 82.9767 14.8867 83.1633 14.98C83.3633 15.0733 83.59 15.16 83.8433 15.24L85.5833 15.76C86.4767 16.0267 87.1633 16.4267 87.6433 16.96C88.1367 17.4933 88.3833 18.1467 88.3833 18.92C88.3833 19.5733 88.21 20.1533 87.8633 20.66C87.5167 21.1533 87.0367 21.54 86.4233 21.82C85.81 22.1 85.09 22.24 84.2633 22.24ZM90.3968 26V11.12H92.8568V13.28L92.6168 12.74C92.9901 12.1533 93.4968 11.7 94.1368 11.38C94.7768 11.0467 95.5168 10.88 96.3568 10.88C97.3834 10.88 98.3101 11.1333 99.1368 11.64C99.9634 12.1467 100.617 12.8267 101.097 13.68C101.59 14.5333 101.837 15.4933 101.837 16.56C101.837 17.6133 101.597 18.5733 101.117 19.44C100.637 20.3067 99.9834 20.9933 99.1568 21.5C98.3301 21.9933 97.3901 22.24 96.3368 22.24C95.5501 22.24 94.8234 22.0867 94.1568 21.78C93.5034 21.46 92.9834 21.0067 92.5968 20.42L93.0168 19.9V26H90.3968ZM96.0368 19.84C96.6368 19.84 97.1701 19.7 97.6368 19.42C98.1034 19.14 98.4634 18.7533 98.7168 18.26C98.9834 17.7667 99.1168 17.2 99.1168 16.56C99.1168 15.92 98.9834 15.36 98.7168 14.88C98.4634 14.3867 98.1034 14 97.6368 13.72C97.1701 13.4267 96.6368 13.28 96.0368 13.28C95.4634 13.28 94.9434 13.42 94.4768 13.7C94.0234 13.98 93.6634 14.3733 93.3968 14.88C93.1434 15.3733 93.0168 15.9333 93.0168 16.56C93.0168 17.2 93.1434 17.7667 93.3968 18.26C93.6634 18.7533 94.0234 19.14 94.4768 19.42C94.9434 19.7 95.4634 19.84 96.0368 19.84ZM108.994 22.24C107.874 22.24 106.894 21.9867 106.054 21.48C105.214 20.9733 104.561 20.2867 104.094 19.42C103.628 18.5533 103.394 17.5933 103.394 16.54C103.394 15.4467 103.628 14.48 104.094 13.64C104.574 12.7867 105.221 12.1133 106.034 11.62C106.861 11.1267 107.781 10.88 108.794 10.88C109.648 10.88 110.394 11.02 111.034 11.3C111.688 11.58 112.241 11.9667 112.694 12.46C113.148 12.9533 113.494 13.52 113.734 14.16C113.974 14.7867 114.094 15.4667 114.094 16.2C114.094 16.3867 114.081 16.58 114.054 16.78C114.041 16.98 114.008 17.1533 113.954 17.3H105.554V15.3H112.474L111.234 16.24C111.354 15.6267 111.321 15.08 111.134 14.6C110.961 14.12 110.668 13.74 110.254 13.46C109.854 13.18 109.368 13.04 108.794 13.04C108.248 13.04 107.761 13.18 107.334 13.46C106.908 13.7267 106.581 14.1267 106.354 14.66C106.141 15.18 106.061 15.8133 106.114 16.56C106.061 17.2267 106.148 17.82 106.374 18.34C106.614 18.8467 106.961 19.24 107.414 19.52C107.881 19.8 108.414 19.94 109.014 19.94C109.614 19.94 110.121 19.8133 110.534 19.56C110.961 19.3067 111.294 18.9667 111.534 18.54L113.654 19.58C113.441 20.1 113.108 20.56 112.654 20.96C112.201 21.36 111.661 21.6733 111.034 21.9C110.421 22.1267 109.741 22.24 108.994 22.24ZM121.32 22.24C120.24 22.24 119.267 21.9933 118.4 21.5C117.547 20.9933 116.874 20.3133 116.38 19.46C115.887 18.5933 115.64 17.62 115.64 16.54C115.64 15.46 115.887 14.4933 116.38 13.64C116.874 12.7867 117.547 12.1133 118.4 11.62C119.267 11.1267 120.24 10.88 121.32 10.88C122.094 10.88 122.814 11.02 123.48 11.3C124.147 11.5667 124.72 11.94 125.2 12.42C125.694 12.8867 126.047 13.4467 126.26 14.1L123.96 15.1C123.76 14.5533 123.42 14.1133 122.94 13.78C122.474 13.4467 121.934 13.28 121.32 13.28C120.747 13.28 120.234 13.42 119.78 13.7C119.34 13.98 118.994 14.3667 118.74 14.86C118.487 15.3533 118.36 15.92 118.36 16.56C118.36 17.2 118.487 17.7667 118.74 18.26C118.994 18.7533 119.34 19.14 119.78 19.42C120.234 19.7 120.747 19.84 121.32 19.84C121.947 19.84 122.494 19.6733 122.96 19.34C123.427 19.0067 123.76 18.56 123.96 18L126.26 19.04C126.047 19.6533 125.7 20.2067 125.22 20.7C124.74 21.18 124.167 21.56 123.5 21.84C122.834 22.1067 122.107 22.24 121.32 22.24ZM133.208 22.12C131.982 22.12 131.028 21.7867 130.348 21.12C129.682 20.44 129.348 19.4867 129.348 18.26V13.46H127.468V11.12H127.668C128.202 11.12 128.615 10.98 128.908 10.7C129.202 10.42 129.348 10.0133 129.348 9.48V8.64H131.968V11.12H134.468V13.46H131.968V18.12C131.968 18.48 132.028 18.7867 132.148 19.04C132.282 19.2933 132.482 19.4867 132.748 19.62C133.028 19.7533 133.382 19.82 133.808 19.82C133.902 19.82 134.008 19.8133 134.128 19.8C134.262 19.7867 134.388 19.7733 134.508 19.76V22C134.322 22.0267 134.108 22.0533 133.868 22.08C133.628 22.1067 133.408 22.12 133.208 22.12ZM140.285 22V7.1H146.565C147.551 7.1 148.391 7.27333 149.085 7.62C149.791 7.95333 150.331 8.43333 150.705 9.06C151.091 9.67333 151.285 10.42 151.285 11.3C151.285 11.98 151.098 12.62 150.725 13.22C150.365 13.8067 149.785 14.2933 148.985 14.68V13.42C149.718 13.7 150.298 14.0467 150.725 14.46C151.151 14.8733 151.451 15.3333 151.625 15.84C151.798 16.3467 151.885 16.88 151.885 17.44C151.885 18.8667 151.411 19.9867 150.465 20.8C149.531 21.6 148.231 22 146.565 22H140.285ZM143.005 19.6H146.845C147.551 19.6 148.111 19.4067 148.525 19.02C148.951 18.62 149.165 18.0933 149.165 17.44C149.165 16.7867 148.951 16.26 148.525 15.86C148.111 15.46 147.551 15.26 146.845 15.26H143.005V19.6ZM143.005 12.88H146.705C147.265 12.88 147.711 12.72 148.045 12.4C148.378 12.0667 148.545 11.64 148.545 11.12C148.545 10.6 148.378 10.1867 148.045 9.88C147.711 9.57333 147.265 9.42 146.705 9.42H143.005V12.88ZM157.773 22.24C156.933 22.24 156.2 22.0533 155.573 21.68C154.96 21.3067 154.486 20.7867 154.153 20.12C153.833 19.4533 153.673 18.6733 153.673 17.78V11.12H156.293V17.56C156.293 18.0133 156.38 18.4133 156.553 18.76C156.74 19.0933 157 19.36 157.333 19.56C157.68 19.7467 158.066 19.84 158.493 19.84C158.92 19.84 159.3 19.7467 159.633 19.56C159.966 19.36 160.226 19.0867 160.413 18.74C160.6 18.3933 160.693 17.98 160.693 17.5V11.12H163.313V22H160.833V19.86L161.053 20.24C160.8 20.9067 160.38 21.4067 159.793 21.74C159.22 22.0733 158.546 22.24 157.773 22.24ZM170.808 22.24C169.755 22.24 168.815 21.9933 167.988 21.5C167.162 20.9933 166.508 20.3067 166.028 19.44C165.548 18.5733 165.308 17.6133 165.308 16.56C165.308 15.4933 165.548 14.5333 166.028 13.68C166.508 12.8267 167.162 12.1467 167.988 11.64C168.828 11.1333 169.762 10.88 170.788 10.88C171.615 10.88 172.348 11.0467 172.988 11.38C173.642 11.7 174.155 12.1533 174.528 12.74L174.128 13.28V6.86H176.748V22H174.268V19.9L174.548 20.42C174.175 21.0067 173.655 21.46 172.988 21.78C172.322 22.0867 171.595 22.24 170.808 22.24ZM171.088 19.84C171.688 19.84 172.215 19.7 172.668 19.42C173.122 19.14 173.475 18.7533 173.728 18.26C173.995 17.7667 174.128 17.2 174.128 16.56C174.128 15.9333 173.995 15.3733 173.728 14.88C173.475 14.3733 173.122 13.98 172.668 13.7C172.215 13.42 171.688 13.28 171.088 13.28C170.502 13.28 169.975 13.4267 169.508 13.72C169.042 14 168.675 14.3867 168.408 14.88C168.155 15.36 168.028 15.92 168.028 16.56C168.028 17.2 168.155 17.7667 168.408 18.26C168.675 18.7533 169.042 19.14 169.508 19.42C169.975 19.7 170.502 19.84 171.088 19.84ZM184.246 22.24C183.192 22.24 182.252 21.9933 181.426 21.5C180.599 20.9933 179.946 20.3067 179.466 19.44C178.986 18.5733 178.746 17.6133 178.746 16.56C178.746 15.4933 178.986 14.5333 179.466 13.68C179.946 12.8267 180.599 12.1467 181.426 11.64C182.266 11.1333 183.199 10.88 184.226 10.88C185.052 10.88 185.786 11.0467 186.426 11.38C187.079 11.7 187.592 12.1533 187.966 12.74L187.566 13.28V6.86H190.186V22H187.706V19.9L187.986 20.42C187.612 21.0067 187.092 21.46 186.426 21.78C185.759 22.0867 185.032 22.24 184.246 22.24ZM184.526 19.84C185.126 19.84 185.652 19.7 186.106 19.42C186.559 19.14 186.912 18.7533 187.166 18.26C187.432 17.7667 187.566 17.2 187.566 16.56C187.566 15.9333 187.432 15.3733 187.166 14.88C186.912 14.3733 186.559 13.98 186.106 13.7C185.652 13.42 185.126 13.28 184.526 13.28C183.939 13.28 183.412 13.4267 182.946 13.72C182.479 14 182.112 14.3867 181.846 14.88C181.592 15.36 181.466 15.92 181.466 16.56C181.466 17.2 181.592 17.7667 181.846 18.26C182.112 18.7533 182.479 19.14 182.946 19.42C183.412 19.7 183.939 19.84 184.526 19.84ZM193.943 26.4C193.65 26.4 193.363 26.3733 193.083 26.32C192.803 26.28 192.55 26.2 192.323 26.08V23.9C192.497 23.94 192.703 23.98 192.943 24.02C193.197 24.06 193.43 24.08 193.643 24.08C194.243 24.08 194.677 23.94 194.943 23.66C195.223 23.3933 195.47 23.0333 195.683 22.58L196.403 20.9L196.363 23.1L191.623 11.12H194.443L197.763 19.96H196.763L200.063 11.12H202.903L198.163 23.1C197.883 23.7933 197.543 24.3867 197.143 24.88C196.743 25.3733 196.277 25.7467 195.743 26C195.223 26.2667 194.623 26.4 193.943 26.4Z" fill="#000929"/>
<path opacity="0.5" d="M61.5939 45L64.7979 36.06H66.1899L69.3939 45H68.1339L67.4019 42.9H63.5859L62.8539 45H61.5939ZM63.9579 41.82H67.0299L65.3259 36.912H65.6619L63.9579 41.82ZM73.094 45.144C72.486 45.144 71.938 44.996 71.45 44.7C70.97 44.404 70.59 44 70.31 43.488C70.03 42.976 69.89 42.404 69.89 41.772C69.89 41.124 70.03 40.548 70.31 40.044C70.59 39.532 70.97 39.128 71.45 38.832C71.938 38.536 72.486 38.388 73.094 38.388C73.63 38.388 74.106 38.504 74.522 38.736C74.938 38.96 75.266 39.264 75.506 39.648L75.326 39.924V35.916H76.454V45H75.362V43.62L75.506 43.812C75.282 44.236 74.954 44.564 74.522 44.796C74.098 45.028 73.622 45.144 73.094 45.144ZM73.19 44.064C73.598 44.064 73.962 43.964 74.282 43.764C74.602 43.564 74.854 43.292 75.038 42.948C75.23 42.596 75.326 42.204 75.326 41.772C75.326 41.332 75.23 40.94 75.038 40.596C74.854 40.244 74.602 39.968 74.282 39.768C73.962 39.568 73.598 39.468 73.19 39.468C72.79 39.468 72.426 39.572 72.098 39.78C71.778 39.98 71.526 40.252 71.342 40.596C71.158 40.932 71.066 41.324 71.066 41.772C71.066 42.204 71.158 42.596 71.342 42.948C71.526 43.292 71.778 43.564 72.098 43.764C72.418 43.964 72.782 44.064 73.19 44.064ZM78.1814 45V38.532H79.2734V39.852L79.1174 39.648C79.2774 39.24 79.5334 38.928 79.8854 38.712C80.2374 38.496 80.6334 38.388 81.0734 38.388C81.5774 38.388 82.0294 38.528 82.4294 38.808C82.8374 39.088 83.1174 39.456 83.2694 39.912L82.9574 39.924C83.1254 39.42 83.4094 39.04 83.8094 38.784C84.2094 38.52 84.6534 38.388 85.1414 38.388C85.5894 38.388 85.9934 38.492 86.3534 38.7C86.7214 38.908 87.0134 39.196 87.2294 39.564C87.4454 39.932 87.5534 40.348 87.5534 40.812V45H86.4254V41.172C86.4254 40.812 86.3614 40.508 86.2334 40.26C86.1054 40.012 85.9294 39.82 85.7054 39.684C85.4894 39.54 85.2334 39.468 84.9374 39.468C84.6494 39.468 84.3894 39.54 84.1574 39.684C83.9334 39.82 83.7534 40.016 83.6174 40.272C83.4894 40.52 83.4254 40.82 83.4254 41.172V45H82.2974V41.172C82.2974 40.812 82.2334 40.508 82.1054 40.26C81.9774 40.012 81.8014 39.82 81.5774 39.684C81.3614 39.54 81.1054 39.468 80.8094 39.468C80.5214 39.468 80.2614 39.54 80.0294 39.684C79.8054 39.82 79.6254 40.016 79.4894 40.272C79.3614 40.52 79.2974 40.82 79.2974 41.172V45H78.1814ZM89.1384 45V38.532H90.2544V45H89.1384ZM89.1384 37.5V36.06H90.2544V37.5H89.1384ZM91.9861 45V38.532H93.0781V39.792L92.8981 39.684C93.0581 39.276 93.3141 38.96 93.6661 38.736C94.0261 38.504 94.4461 38.388 94.9261 38.388C95.3901 38.388 95.8021 38.492 96.1621 38.7C96.5301 38.908 96.8181 39.196 97.0261 39.564C97.2421 39.932 97.3501 40.348 97.3501 40.812V45H96.2221V41.172C96.2221 40.812 96.1581 40.508 96.0301 40.26C95.9021 40.012 95.7181 39.82 95.4781 39.684C95.2461 39.54 94.9781 39.468 94.6741 39.468C94.3701 39.468 94.0981 39.54 93.8581 39.684C93.6261 39.82 93.4421 40.016 93.3061 40.272C93.1701 40.52 93.1021 40.82 93.1021 41.172V45H91.9861ZM101.153 45V36.06H104.309C104.901 36.06 105.421 36.172 105.869 36.396C106.317 36.62 106.665 36.94 106.913 37.356C107.169 37.772 107.297 38.26 107.297 38.82C107.297 39.38 107.169 39.868 106.913 40.284C106.665 40.692 106.317 41.012 105.869 41.244C105.429 41.468 104.909 41.58 104.309 41.58H102.329V45H101.153ZM102.329 40.5H104.345C104.705 40.5 105.017 40.432 105.281 40.296C105.545 40.16 105.749 39.964 105.893 39.708C106.037 39.452 106.109 39.156 106.109 38.82C106.109 38.476 106.037 38.18 105.893 37.932C105.749 37.676 105.545 37.48 105.281 37.344C105.017 37.208 104.705 37.14 104.345 37.14H102.329V40.5ZM110.206 45.144C109.782 45.144 109.406 45.068 109.078 44.916C108.758 44.756 108.506 44.54 108.322 44.268C108.138 43.988 108.046 43.668 108.046 43.308C108.046 42.964 108.118 42.656 108.262 42.384C108.414 42.104 108.646 41.868 108.958 41.676C109.278 41.484 109.678 41.348 110.158 41.268L112.558 40.872V41.808L110.41 42.168C109.994 42.24 109.69 42.372 109.498 42.564C109.314 42.756 109.222 42.992 109.222 43.272C109.222 43.536 109.326 43.756 109.534 43.932C109.75 44.108 110.018 44.196 110.338 44.196C110.746 44.196 111.098 44.112 111.394 43.944C111.698 43.768 111.934 43.532 112.102 43.236C112.278 42.94 112.366 42.612 112.366 42.252V40.608C112.366 40.256 112.234 39.972 111.97 39.756C111.714 39.532 111.374 39.42 110.95 39.42C110.582 39.42 110.254 39.516 109.966 39.708C109.686 39.892 109.478 40.14 109.342 40.452L108.37 39.948C108.49 39.652 108.682 39.388 108.946 39.156C109.21 38.916 109.518 38.728 109.87 38.592C110.222 38.456 110.59 38.388 110.974 38.388C111.47 38.388 111.906 38.484 112.282 38.676C112.658 38.86 112.95 39.12 113.158 39.456C113.374 39.784 113.482 40.168 113.482 40.608V45H112.39V43.776L112.594 43.848C112.458 44.104 112.274 44.328 112.042 44.52C111.81 44.712 111.538 44.864 111.226 44.976C110.914 45.088 110.574 45.144 110.206 45.144ZM115.213 45V38.532H116.305V39.792L116.125 39.684C116.285 39.276 116.541 38.96 116.893 38.736C117.253 38.504 117.673 38.388 118.153 38.388C118.617 38.388 119.029 38.492 119.389 38.7C119.757 38.908 120.045 39.196 120.253 39.564C120.469 39.932 120.577 40.348 120.577 40.812V45H119.449V41.172C119.449 40.812 119.385 40.508 119.257 40.26C119.129 40.012 118.945 39.82 118.705 39.684C118.473 39.54 118.205 39.468 117.901 39.468C117.597 39.468 117.325 39.54 117.085 39.684C116.853 39.82 116.669 40.016 116.533 40.272C116.397 40.52 116.329 40.82 116.329 41.172V45H115.213ZM125.15 45.144C124.526 45.144 123.97 44.996 123.482 44.7C122.994 44.404 122.61 44 122.33 43.488C122.05 42.968 121.91 42.388 121.91 41.748C121.91 41.1 122.046 40.524 122.318 40.02C122.598 39.516 122.974 39.12 123.446 38.832C123.926 38.536 124.462 38.388 125.054 38.388C125.534 38.388 125.958 38.476 126.326 38.652C126.702 38.82 127.018 39.052 127.274 39.348C127.538 39.636 127.738 39.968 127.874 40.344C128.018 40.712 128.09 41.096 128.09 41.496C128.09 41.584 128.082 41.684 128.066 41.796C128.058 41.9 128.046 42 128.03 42.096H122.726V41.136H127.382L126.854 41.568C126.926 41.152 126.886 40.78 126.734 40.452C126.582 40.124 126.358 39.864 126.062 39.672C125.766 39.48 125.43 39.384 125.054 39.384C124.678 39.384 124.334 39.48 124.022 39.672C123.71 39.864 123.466 40.14 123.29 40.5C123.122 40.852 123.054 41.272 123.086 41.76C123.054 42.232 123.126 42.648 123.302 43.008C123.486 43.36 123.742 43.636 124.07 43.836C124.406 44.028 124.77 44.124 125.162 44.124C125.594 44.124 125.958 44.024 126.254 43.824C126.55 43.624 126.79 43.368 126.974 43.056L127.91 43.536C127.782 43.832 127.582 44.104 127.31 44.352C127.046 44.592 126.73 44.784 126.362 44.928C126.002 45.072 125.598 45.144 125.15 45.144ZM129.545 45V35.916H130.661V45H129.545Z" fill="#100A55"/>
<defs>
<linearGradient id="paint0_linear_3165_11502" x1="2.55413" y1="0.484406" x2="48.6606" y2="46.0624" gradientUnits="userSpaceOnUse">
<stop stop-color="#2A85FF"/>
<stop offset="1" stop-color="#024CAF"/>
</linearGradient>
<linearGradient id="paint1_linear_3165_11502" x1="24.4411" y1="48.7667" x2="24.4411" y2="26.2328" gradientUnits="userSpaceOnUse">
<stop stop-color="#D7E1D9"/>
<stop offset="0.1168" stop-color="#D7E1D9"/>
<stop offset="0.2213" stop-color="#DBE4DB"/>
<stop offset="0.3427" stop-color="#E7ECE3"/>
<stop offset="0.472" stop-color="#FAFAF0"/>
<stop offset="0.495" stop-color="#FEFDF2"/>
<stop offset="1" stop-color="#FEFDF2"/>
</linearGradient>
<linearGradient id="paint2_linear_3165_11502" x1="24.2276" y1="33.3386" x2="24.2276" y2="1.70881" gradientUnits="userSpaceOnUse">
<stop stop-color="#D7E1D9"/>
<stop offset="1.38523e-07" stop-color="#D7E1D9"/>
<stop offset="0.0671" stop-color="#E2E8DF"/>
<stop offset="0.2064" stop-color="#F2F4EA"/>
<stop offset="0.3481" stop-color="#FBFBF0"/>
<stop offset="0.495" stop-color="#FEFDF2"/>
<stop offset="1" stop-color="#FEFDF2"/>
</linearGradient>
</defs>
</svg>
