<svg width="50" height="48" viewBox="0 0 50 48" fill="none" xmlns="http://www.w3.org/2000/svg">
<mask id="mask0_4444_18289" style="mask-type:luminance" maskUnits="userSpaceOnUse" x="0" y="0" width="50" height="48">
<path d="M15.4721 0C6.92711 0 0 6.92711 0 15.4721V32.5279C0 41.0729 6.92711 48 15.4721 48H33.9898C42.5348 48 49.4619 41.0729 49.4619 32.5279V15.4721C49.4619 6.92711 42.5348 0 33.9898 0H15.4721Z" fill="white"/>
</mask>
<g mask="url(#mask0_4444_18289)">
<path d="M5.78607 63.8969L-15.4265 5.61462L43.676 -15.8968L64.8886 42.3854L5.78607 63.8969Z" fill="url(#paint0_linear_4444_18289)"/>
</g>
<mask id="mask1_4444_18289" style="mask-type:luminance" maskUnits="userSpaceOnUse" x="11" y="26" width="27" height="22">
<path d="M11.3665 26.2327V47.4493C12.6741 47.8083 14.0507 48 15.472 48H33.9898C35.2048 48 36.3857 47.8603 37.5204 47.5955V26.2327H11.3665Z" fill="white"/>
</mask>
<g mask="url(#mask1_4444_18289)">
<path d="M37.5204 26.2327H11.3665V48H37.5204V26.2327Z" fill="url(#paint1_linear_4444_18289)"/>
</g>
<mask id="mask2_4444_18289" style="mask-type:luminance" maskUnits="userSpaceOnUse" x="0" y="0" width="50" height="48">
<path d="M15.4721 0C6.92711 0 0 6.92711 0 15.4721V32.5279C0 41.0729 6.92711 48 15.4721 48H33.9898C42.5348 48 49.4619 41.0729 49.4619 32.5279V15.4721C49.4619 6.92711 42.5348 0 33.9898 0H15.4721Z" fill="white"/>
</mask>
<g mask="url(#mask2_4444_18289)">
<path d="M34.3374 42.2709C34.3374 43.957 32.9705 45.3231 31.2852 45.3231C29.5991 45.3231 28.4799 43.9773 28.233 42.2709C27.991 40.6027 29.6162 39.2504 31.2852 39.2187C32.9705 39.1862 34.3374 40.5856 34.3374 42.2709Z" fill="#BAC9C4"/>
</g>
<mask id="mask3_4444_18289" style="mask-type:luminance" maskUnits="userSpaceOnUse" x="0" y="0" width="50" height="48">
<path d="M15.4721 0C6.92711 0 0 6.92711 0 15.4721V32.5279C0 41.0729 6.92711 48 15.4721 48H33.9898C42.5348 48 49.4619 41.0729 49.4619 32.5279V15.4721C49.4619 6.92711 42.5348 0 33.9898 0H15.4721Z" fill="white"/>
</mask>
<g mask="url(#mask3_4444_18289)">
<path d="M38.3399 40.5076C37.7397 41.2752 36.8049 41.7682 35.7548 41.7682C33.9428 41.7682 32.4744 40.2997 32.4744 38.4877C32.4744 36.6758 33.9428 35.2073 35.7548 35.2073C36.8244 35.2073 37.7747 35.7198 38.3741 36.5117C38.7899 37.0607 38.7761 39.9505 38.3399 40.5076Z" fill="#BAC9C4"/>
</g>
<mask id="mask4_4444_18289" style="mask-type:luminance" maskUnits="userSpaceOnUse" x="0" y="0" width="50" height="48">
<path d="M15.4721 0C6.92711 0 0 6.92711 0 15.4721V32.5279C0 41.0729 6.92711 48 15.4721 48H33.9898C42.5348 48 49.4619 41.0729 49.4619 32.5279V15.4721C49.4619 6.92711 42.5348 0 33.9898 0H15.4721Z" fill="white"/>
</mask>
<g mask="url(#mask4_4444_18289)">
<path d="M18.5308 36.4305C18.5308 39.0392 16.4159 41.1541 13.8072 41.1541C12.679 41.1541 11.6443 40.7586 10.8321 40.0999C9.76574 39.2341 10.3643 33.5667 11.3617 32.7009C12.1909 31.9813 12.623 31.7076 13.8072 31.7076C16.4159 31.7068 18.5308 33.8218 18.5308 36.4305Z" fill="#BAC9C4"/>
</g>
<mask id="mask5_4444_18289" style="mask-type:luminance" maskUnits="userSpaceOnUse" x="0" y="0" width="50" height="48">
<path d="M15.4721 0C6.92711 0 0 6.92711 0 15.4721V32.5279C0 41.0729 6.92711 48 15.4721 48H33.9898C42.5348 48 49.4619 41.0729 49.4619 32.5279V15.4721C49.4619 6.92711 42.5348 0 33.9898 0H15.4721Z" fill="white"/>
</mask>
<g mask="url(#mask5_4444_18289)">
<path d="M37.5204 48.7976H11.3665V26.2327H37.5204V48.7976ZM38.8435 24.9097H37.5204H11.3665H10.0435V26.2327V48.7976V50.1206H11.3665H37.5204H38.8435V48.7976V26.2327V24.9097Z" fill="#112033"/>
</g>
<mask id="mask6_4444_18289" style="mask-type:luminance" maskUnits="userSpaceOnUse" x="7" y="1" width="35" height="33">
<path d="M7.13013 17.5237C7.13013 26.2579 14.7833 33.3385 24.2241 33.3385C33.665 33.3385 41.3181 26.2579 41.3181 17.5237C41.3181 8.78947 33.665 1.70886 24.2241 1.70886C14.7841 1.70886 7.13013 8.78947 7.13013 17.5237Z" fill="white"/>
</mask>
<g mask="url(#mask6_4444_18289)">
<path d="M41.319 1.70886H7.13013V33.3385H41.319V1.70886Z" fill="url(#paint2_linear_4444_18289)"/>
</g>
<mask id="mask7_4444_18289" style="mask-type:luminance" maskUnits="userSpaceOnUse" x="0" y="0" width="50" height="48">
<path d="M15.4721 0C6.92711 0 0 6.92711 0 15.4721V32.5279C0 41.0729 6.92711 48 15.4721 48H33.9898C42.5348 48 49.4619 41.0729 49.4619 32.5279V15.4721C49.4619 6.92711 42.5348 0 33.9898 0H15.4721Z" fill="white"/>
</mask>
<g mask="url(#mask7_4444_18289)">
<path d="M24.2249 3.00835C26.3698 3.00835 28.449 3.39658 30.4056 4.16165C32.289 4.89912 33.98 5.95252 35.4306 7.29424C38.3902 10.0321 40.0202 13.665 40.0202 17.5229C40.0202 21.3807 38.3902 25.0136 35.4306 27.7515C33.98 29.0932 32.2898 30.1474 30.4056 30.8849C28.4498 31.65 26.3698 32.0382 24.2249 32.0382C22.0799 32.0382 20.0007 31.65 18.0442 30.8849C16.1607 30.1474 14.4697 29.0932 13.0192 27.7515C10.0596 25.0136 8.42954 21.3807 8.42954 17.5229C8.42954 13.665 10.0596 10.0321 13.0192 7.29424C14.4697 5.95252 16.1599 4.8983 18.0442 4.16165C20.0007 3.39658 22.0799 3.00835 24.2249 3.00835ZM24.2249 1.70886C14.7841 1.70886 7.13086 8.78947 7.13086 17.5237C7.13086 26.2579 14.7841 33.3385 24.2249 33.3385C33.6657 33.3385 41.3189 26.2579 41.3189 17.5237C41.3189 8.78947 33.6657 1.70886 24.2249 1.70886Z" fill="#112033"/>
</g>
<mask id="mask8_4444_18289" style="mask-type:luminance" maskUnits="userSpaceOnUse" x="0" y="0" width="50" height="48">
<path d="M15.4721 0C6.92711 0 0 6.92711 0 15.4721V32.5279C0 41.0729 6.92711 48 15.4721 48H33.9898C42.5348 48 49.4619 41.0729 49.4619 32.5279V15.4721C49.4619 6.92711 42.5348 0 33.9898 0H15.4721Z" fill="white"/>
</mask>
<g mask="url(#mask8_4444_18289)">
<path d="M41.2986 16.7562C40.8827 23.9464 33.3977 27.7702 24.2232 27.7702C15.061 27.7702 7.58324 23.9562 7.14954 16.7854C7.13736 17.0307 7.13086 17.2768 7.13086 17.5237C7.13086 26.2579 14.7841 33.3385 24.2249 33.3385C33.6657 33.3385 41.3189 26.2579 41.3189 17.5237C41.3189 17.2662 41.3116 17.0104 41.2986 16.7562Z" fill="#BCCCCB"/>
</g>
<mask id="mask9_4444_18289" style="mask-type:luminance" maskUnits="userSpaceOnUse" x="0" y="0" width="50" height="48">
<path d="M15.4721 0C6.92711 0 0 6.92711 0 15.4721V32.5279C0 41.0729 6.92711 48 15.4721 48H33.9898C42.5348 48 49.4619 41.0729 49.4619 32.5279V15.4721C49.4619 6.92711 42.5348 0 33.9898 0H15.4721Z" fill="white"/>
</mask>
<g mask="url(#mask9_4444_18289)">
<path d="M24.2249 3.00835C26.3698 3.00835 28.449 3.39658 30.4056 4.16165C32.289 4.89912 33.98 5.95252 35.4306 7.29424C38.3902 10.0321 40.0202 13.665 40.0202 17.5229C40.0202 21.3807 38.3902 25.0136 35.4306 27.7515C33.98 29.0932 32.2898 30.1474 30.4056 30.8849C28.4498 31.65 26.3698 32.0382 24.2249 32.0382C22.0799 32.0382 20.0007 31.65 18.0442 30.8849C16.1607 30.1474 14.4697 29.0932 13.0192 27.7515C10.0596 25.0136 8.42954 21.3807 8.42954 17.5229C8.42954 13.665 10.0596 10.0321 13.0192 7.29424C14.4697 5.95252 16.1599 4.8983 18.0442 4.16165C20.0007 3.39658 22.0799 3.00835 24.2249 3.00835ZM24.2249 1.70886C14.7841 1.70886 7.13086 8.78947 7.13086 17.5237C7.13086 26.2579 14.7841 33.3385 24.2249 33.3385C33.6657 33.3385 41.3189 26.2579 41.3189 17.5237C41.3189 8.78947 33.6657 1.70886 24.2249 1.70886Z" fill="#112033"/>
</g>
<mask id="mask10_4444_18289" style="mask-type:luminance" maskUnits="userSpaceOnUse" x="0" y="0" width="50" height="48">
<path d="M15.4721 0C6.92711 0 0 6.92711 0 15.4721V32.5279C0 41.0729 6.92711 48 15.4721 48H33.9898C42.5348 48 49.4619 41.0729 49.4619 32.5279V15.4721C49.4619 6.92711 42.5348 0 33.9898 0H15.4721Z" fill="white"/>
</mask>
<g mask="url(#mask10_4444_18289)">
<path d="M19.2171 14.1994C19.2171 15.5151 18.1499 16.5824 16.8341 16.5824C15.5184 16.5824 14.4512 15.5151 14.4512 14.1994C14.4512 12.8837 15.5176 11.8165 16.8341 11.8165C18.1507 11.8173 19.2171 12.8837 19.2171 14.1994Z" fill="#112033"/>
</g>
<mask id="mask11_4444_18289" style="mask-type:luminance" maskUnits="userSpaceOnUse" x="0" y="0" width="50" height="48">
<path d="M15.4721 0C6.92711 0 0 6.92711 0 15.4721V32.5279C0 41.0729 6.92711 48 15.4721 48H33.9898C42.5348 48 49.4619 41.0729 49.4619 32.5279V15.4721C49.4619 6.92711 42.5348 0 33.9898 0H15.4721Z" fill="white"/>
</mask>
<g mask="url(#mask11_4444_18289)">
<path d="M19.5809 30.4877C19.5809 34.0248 16.8439 36.8926 13.4684 36.8926C10.093 36.8926 7.35596 34.0248 7.35596 30.4877C7.35596 26.9506 10.093 24.0828 13.4684 24.0828C16.8439 24.0828 19.5809 26.9506 19.5809 30.4877Z" fill="#FEFDF4"/>
</g>
<mask id="mask12_4444_18289" style="mask-type:luminance" maskUnits="userSpaceOnUse" x="0" y="0" width="50" height="48">
<path d="M15.4721 0C6.92711 0 0 6.92711 0 15.4721V32.5279C0 41.0729 6.92711 48 15.4721 48H33.9898C42.5348 48 49.4619 41.0729 49.4619 32.5279V15.4721C49.4619 6.92711 42.5348 0 33.9898 0H15.4721Z" fill="white"/>
</mask>
<g mask="url(#mask12_4444_18289)">
<path d="M13.4684 25.3823C16.1227 25.3823 18.2814 27.6727 18.2814 30.4877C18.2814 33.3027 16.1227 35.5931 13.4684 35.5931C10.8142 35.5931 8.65545 33.3027 8.65545 30.4877C8.65545 27.6727 10.815 25.3823 13.4684 25.3823ZM13.4684 24.0828C10.0922 24.0828 7.35596 26.9506 7.35596 30.4877C7.35596 34.0248 10.0922 36.8926 13.4684 36.8926C16.8447 36.8926 19.5809 34.0248 19.5809 30.4877C19.5809 26.9506 16.8447 24.0828 13.4684 24.0828Z" fill="#112033"/>
</g>
<mask id="mask13_4444_18289" style="mask-type:luminance" maskUnits="userSpaceOnUse" x="0" y="0" width="50" height="48">
<path d="M15.4721 0C6.92711 0 0 6.92711 0 15.4721V32.5279C0 41.0729 6.92711 48 15.4721 48H33.9898C42.5348 48 49.4619 41.0729 49.4619 32.5279V15.4721C49.4619 6.92711 42.5348 0 33.9898 0H15.4721Z" fill="white"/>
</mask>
<g mask="url(#mask13_4444_18289)">
<path d="M32.8414 39.0246C32.4426 40.6855 30.7728 41.7088 29.1119 41.31C27.451 40.9113 26.4276 39.2414 26.8264 37.5805L31.3153 22.0914L36.718 23.3194L32.8414 39.0246Z" fill="#FEFDF4"/>
</g>
<mask id="mask14_4444_18289" style="mask-type:luminance" maskUnits="userSpaceOnUse" x="0" y="0" width="50" height="48">
<path d="M15.4721 0C6.92711 0 0 6.92711 0 15.4721V32.5279C0 41.0729 6.92711 48 15.4721 48H33.9898C42.5348 48 49.4619 41.0729 49.4619 32.5279V15.4721C49.4619 6.92711 42.5348 0 33.9898 0H15.4721Z" fill="white"/>
</mask>
<g mask="url(#mask14_4444_18289)">
<path d="M32.2217 23.6305L35.1383 24.2932L31.5793 38.7135L31.5785 38.7176L31.5777 38.7216C31.3836 39.5314 30.6672 40.0966 29.8363 40.0966C29.6958 40.0966 29.5537 40.0796 29.4148 40.0463C28.9494 39.9342 28.5547 39.6483 28.3046 39.2398C28.0593 38.8386 27.9805 38.3675 28.0837 37.9094L32.2217 23.6305ZM31.3153 22.0914L26.8264 37.5805C26.4276 39.2414 27.451 40.9113 29.1119 41.31C29.3547 41.3685 29.5976 41.3961 29.8363 41.3961C31.2333 41.3961 32.5003 40.4426 32.8406 39.0246L36.7172 23.3194L31.3153 22.0914Z" fill="#112033"/>
</g>
<mask id="mask15_4444_18289" style="mask-type:luminance" maskUnits="userSpaceOnUse" x="0" y="0" width="50" height="48">
<path d="M15.4721 0C6.92711 0 0 6.92711 0 15.4721V32.5279C0 41.0729 6.92711 48 15.4721 48H33.9898C42.5348 48 49.4619 41.0729 49.4619 32.5279V15.4721C49.4619 6.92711 42.5348 0 33.9898 0H15.4721Z" fill="white"/>
</mask>
<g mask="url(#mask15_4444_18289)">
<path d="M29.2703 33.8729C28.9357 34.2441 29.211 35.0367 29.4547 35.4843C29.8307 36.1754 30.1637 36.1023 30.7672 36.9576C31.1058 37.4384 31.4072 37.8794 31.274 38.3391C31.1448 38.7842 30.6835 38.9888 30.5836 39.0294C30.0061 39.2666 29.2906 39.0489 28.8796 38.638C28.3923 38.1507 28.5247 37.5846 28.1203 37.4635C27.8506 37.3831 27.5095 37.5504 27.36 37.786C27.2447 37.9687 27.2813 38.2018 27.36 38.6607C27.4526 39.2008 27.4989 39.4713 27.7052 39.7888C27.9343 40.1413 28.2169 40.3314 28.3728 40.4337C28.4459 40.4816 28.77 40.6895 29.2711 40.8024C29.5919 40.8747 30.327 41.0404 31.0206 40.6644C31.3235 40.5003 31.4949 40.2997 31.7345 40.0195C32.2072 39.4664 32.4208 38.9165 32.4939 38.707C32.8074 37.8168 32.4768 37.7559 32.7927 36.7269C32.8553 36.5239 32.9259 36.337 32.839 36.1511C32.7075 35.8717 32.3631 35.909 31.8717 35.7133C30.9946 35.3641 30.4585 34.5941 30.4212 34.5389C30.1207 34.0962 30.076 33.7454 29.7763 33.6869C29.5944 33.6528 29.3897 33.7405 29.2703 33.8729Z" fill="#BCCCCB"/>
</g>
<mask id="mask16_4444_18289" style="mask-type:luminance" maskUnits="userSpaceOnUse" x="0" y="0" width="50" height="48">
<path d="M15.4721 0C6.92711 0 0 6.92711 0 15.4721V32.5279C0 41.0729 6.92711 48 15.4721 48H33.9898C42.5348 48 49.4619 41.0729 49.4619 32.5279V15.4721C49.4619 6.92711 42.5348 0 33.9898 0H15.4721Z" fill="white"/>
</mask>
<g mask="url(#mask16_4444_18289)">
<path d="M32.2217 23.6305L35.1383 24.2932L31.5793 38.7135L31.5785 38.7176L31.5777 38.7216C31.3836 39.5314 30.6672 40.0966 29.8363 40.0966C29.6958 40.0966 29.5537 40.0796 29.4148 40.0463C28.9494 39.9342 28.5547 39.6483 28.3046 39.2398C28.0593 38.8386 27.9805 38.3675 28.0837 37.9094L32.2217 23.6305ZM31.3153 22.0914L26.8264 37.5805C26.4276 39.2414 27.451 40.9113 29.1119 41.31C29.3547 41.3685 29.5976 41.3961 29.8363 41.3961C31.2333 41.3961 32.5003 40.4426 32.8406 39.0246L36.7172 23.3194L31.3153 22.0914Z" fill="#112033"/>
</g>
<mask id="mask17_4444_18289" style="mask-type:luminance" maskUnits="userSpaceOnUse" x="0" y="0" width="50" height="48">
<path d="M15.4721 0C6.92711 0 0 6.92711 0 15.4721V32.5279C0 41.0729 6.92711 48 15.4721 48H33.9898C42.5348 48 49.4619 41.0729 49.4619 32.5279V15.4721C49.4619 6.92711 42.5348 0 33.9898 0H15.4721Z" fill="white"/>
</mask>
<g mask="url(#mask17_4444_18289)">
<path d="M23.8596 22.8134C23.7841 22.8134 23.7077 22.8118 23.6314 22.8094C20.6149 22.703 18.8752 20.5491 18.5569 20.1186C18.3173 19.7937 18.3855 19.3365 18.7104 19.0961C19.0352 18.8565 19.4925 18.9247 19.7329 19.2496C19.9814 19.5858 21.3378 21.2654 23.6834 21.3474C26.2953 21.44 27.8312 19.4729 27.9977 19.2479C28.2381 18.9239 28.6961 18.8557 29.0202 19.0961C29.3443 19.3365 29.4125 19.7945 29.1721 20.1186C28.9625 20.4012 27.0791 22.8134 23.8596 22.8134Z" fill="#14182D"/>
</g>
<mask id="mask18_4444_18289" style="mask-type:luminance" maskUnits="userSpaceOnUse" x="0" y="0" width="50" height="48">
<path d="M15.4721 0C6.92711 0 0 6.92711 0 15.4721V32.5279C0 41.0729 6.92711 48 15.4721 48H33.9898C42.5348 48 49.4619 41.0729 49.4619 32.5279V15.4721C49.4619 6.92711 42.5348 0 33.9898 0H15.4721Z" fill="white"/>
</mask>
<g mask="url(#mask18_4444_18289)">
<path d="M34.543 28.6961C34.543 30.8833 32.8504 32.6563 30.7631 32.6563C28.6758 32.6563 26.8208 30.8833 26.8208 28.6961C26.8208 26.5089 28.671 24.8504 30.7631 24.7359C32.848 24.6205 34.543 26.508 34.543 28.6961Z" fill="#FEFDF4"/>
</g>
<mask id="mask19_4444_18289" style="mask-type:luminance" maskUnits="userSpaceOnUse" x="0" y="0" width="50" height="48">
<path d="M15.4721 0C6.92711 0 0 6.92711 0 15.4721V32.5279C0 41.0729 6.92711 48 15.4721 48H33.9898C42.5348 48 49.4619 41.0729 49.4619 32.5279V15.4721C49.4619 6.92711 42.5348 0 33.9898 0H15.4721Z" fill="white"/>
</mask>
<g mask="url(#mask19_4444_18289)">
<path d="M30.9434 25.7048C32.3664 25.7048 33.5684 27.0741 33.5684 28.6961C33.5684 30.3423 32.3103 31.6816 30.7631 31.6816C30.0127 31.6816 29.259 31.3616 28.6945 30.8029C28.1146 30.2295 27.7954 29.4806 27.7954 28.6952C27.7954 27.9253 28.1114 27.1943 28.6864 26.6372C29.2509 26.0898 30.0273 25.7511 30.8167 25.7072C30.859 25.7056 30.9012 25.7048 30.9434 25.7048ZM30.9434 24.7302C30.8833 24.7302 30.8232 24.7318 30.7631 24.735C28.671 24.8504 26.8208 26.508 26.8208 28.6952C26.8208 30.8824 28.6758 32.6554 30.7631 32.6554C32.8504 32.6554 34.543 30.8824 34.543 28.6952C34.543 26.5714 32.9447 24.7302 30.9434 24.7302Z" fill="#112033"/>
</g>
<mask id="mask20_4444_18289" style="mask-type:luminance" maskUnits="userSpaceOnUse" x="0" y="0" width="50" height="48">
<path d="M15.4721 0C6.92711 0 0 6.92711 0 15.4721V32.5279C0 41.0729 6.92711 48 15.4721 48H33.9898C42.5348 48 49.4619 41.0729 49.4619 32.5279V15.4721C49.4619 6.92711 42.5348 0 33.9898 0H15.4721Z" fill="white"/>
</mask>
<g mask="url(#mask20_4444_18289)">
<path d="M40.5887 30.8938C40.5887 34.4309 37.8517 37.2987 34.4763 37.2987C31.1008 37.2987 28.3638 34.4309 28.3638 30.8938C28.3638 27.3568 31.1008 24.489 34.4763 24.489C37.8517 24.489 40.5887 27.3568 40.5887 30.8938Z" fill="#FEFDF4"/>
</g>
<mask id="mask21_4444_18289" style="mask-type:luminance" maskUnits="userSpaceOnUse" x="0" y="0" width="50" height="48">
<path d="M15.4721 0C6.92711 0 0 6.92711 0 15.4721V32.5279C0 41.0729 6.92711 48 15.4721 48H33.9898C42.5348 48 49.4619 41.0729 49.4619 32.5279V15.4721C49.4619 6.92711 42.5348 0 33.9898 0H15.4721Z" fill="white"/>
</mask>
<g mask="url(#mask21_4444_18289)">
<path d="M34.4763 25.7884C37.1305 25.7884 39.2892 28.0788 39.2892 30.8938C39.2892 33.7089 37.1305 35.9992 34.4763 35.9992C31.822 35.9992 29.6633 33.7089 29.6633 30.8938C29.6633 28.0788 31.822 25.7884 34.4763 25.7884ZM34.4763 24.489C31.1 24.489 28.3638 27.3568 28.3638 30.8938C28.3638 34.4309 31.1008 37.2987 34.4763 37.2987C37.8517 37.2987 40.5887 34.4309 40.5887 30.8938C40.5887 27.3568 37.8517 24.489 34.4763 24.489Z" fill="#112033"/>
</g>
<mask id="mask22_4444_18289" style="mask-type:luminance" maskUnits="userSpaceOnUse" x="0" y="0" width="50" height="48">
<path d="M15.4721 0C6.92711 0 0 6.92711 0 15.4721V32.5279C0 41.0729 6.92711 48 15.4721 48H33.9898C42.5348 48 49.4619 41.0729 49.4619 32.5279V15.4721C49.4619 6.92711 42.5348 0 33.9898 0H15.4721Z" fill="white"/>
</mask>
<g mask="url(#mask22_4444_18289)">
<path d="M13.4188 33.7405C10.7102 33.7405 9.02003 31.2341 8.14044 29.4116C7.62308 28.3411 7.4777 29.5659 7.65963 30.5089C8.33942 34.0256 10.2789 36.7911 13.4196 36.7911C16.661 36.7911 18.4836 34.1653 19.1536 30.7777C19.3559 29.756 19.2998 28.4622 18.7987 29.6431C18.0377 31.4388 16.4718 33.7405 13.4188 33.7405Z" fill="#BCCCCB"/>
</g>
<mask id="mask23_4444_18289" style="mask-type:luminance" maskUnits="userSpaceOnUse" x="0" y="0" width="50" height="48">
<path d="M15.4721 0C6.92711 0 0 6.92711 0 15.4721V32.5279C0 41.0729 6.92711 48 15.4721 48H33.9898C42.5348 48 49.4619 41.0729 49.4619 32.5279V15.4721C49.4619 6.92711 42.5348 0 33.9898 0H15.4721Z" fill="white"/>
</mask>
<g mask="url(#mask23_4444_18289)">
<path d="M34.0411 34.1539C31.5184 33.8112 30.2531 31.3267 29.6577 29.5659C29.3077 28.5312 29.021 29.6219 29.0746 30.4991C29.2752 33.7698 30.7412 36.5206 33.6659 36.9178C36.6847 37.3279 38.7046 35.1797 39.7459 32.1966C40.0602 31.2967 40.1666 30.1182 39.555 31.1237C38.625 32.6538 36.8845 34.5405 34.0411 34.1539Z" fill="#BCCCCB"/>
</g>
<mask id="mask24_4444_18289" style="mask-type:luminance" maskUnits="userSpaceOnUse" x="0" y="0" width="50" height="48">
<path d="M15.4721 0C6.92711 0 0 6.92711 0 15.4721V32.5279C0 41.0729 6.92711 48 15.4721 48H33.9898C42.5348 48 49.4619 41.0729 49.4619 32.5279V15.4721C49.4619 6.92711 42.5348 0 33.9898 0H15.4721Z" fill="white"/>
</mask>
<g mask="url(#mask24_4444_18289)">
<path d="M13.4684 25.3823C16.1227 25.3823 18.2814 27.6727 18.2814 30.4877C18.2814 33.3027 16.1227 35.5931 13.4684 35.5931C10.8142 35.5931 8.65545 33.3027 8.65545 30.4877C8.65545 27.6727 10.815 25.3823 13.4684 25.3823ZM13.4684 24.0828C10.0922 24.0828 7.35596 26.9506 7.35596 30.4877C7.35596 34.0248 10.0922 36.8926 13.4684 36.8926C16.8447 36.8926 19.5809 34.0248 19.5809 30.4877C19.5809 26.9506 16.8447 24.0828 13.4684 24.0828Z" fill="#112033"/>
</g>
<mask id="mask25_4444_18289" style="mask-type:luminance" maskUnits="userSpaceOnUse" x="0" y="0" width="50" height="48">
<path d="M15.4721 0C6.92711 0 0 6.92711 0 15.4721V32.5279C0 41.0729 6.92711 48 15.4721 48H33.9898C42.5348 48 49.4619 41.0729 49.4619 32.5279V15.4721C49.4619 6.92711 42.5348 0 33.9898 0H15.4721Z" fill="white"/>
</mask>
<g mask="url(#mask25_4444_18289)">
<path d="M34.4763 25.7884C37.1305 25.7884 39.2892 28.0788 39.2892 30.8938C39.2892 33.7089 37.1305 35.9992 34.4763 35.9992C31.822 35.9992 29.6633 33.7089 29.6633 30.8938C29.6633 28.0788 31.822 25.7884 34.4763 25.7884ZM34.4763 24.489C31.1 24.489 28.3638 27.3568 28.3638 30.8938C28.3638 34.4309 31.1008 37.2987 34.4763 37.2987C37.8517 37.2987 40.5887 34.4309 40.5887 30.8938C40.5887 27.3568 37.8517 24.489 34.4763 24.489Z" fill="#112033"/>
</g>
<mask id="mask26_4444_18289" style="mask-type:luminance" maskUnits="userSpaceOnUse" x="0" y="0" width="50" height="48">
<path d="M15.4721 0C6.92711 0 0 6.92711 0 15.4721V32.5279C0 41.0729 6.92711 48 15.4721 48H33.9898C42.5348 48 49.4619 41.0729 49.4619 32.5279V15.4721C49.4619 6.92711 42.5348 0 33.9898 0H15.4721Z" fill="white"/>
</mask>
<g mask="url(#mask26_4444_18289)">
<path d="M45.7665 13.6496C45.7665 19.4055 41.1005 24.0715 35.3445 24.0715C29.5886 24.0715 24.9226 19.4055 24.9226 13.6496C24.9226 7.89363 29.5886 3.22846 35.3445 3.22846C41.1005 3.22846 45.7665 7.89445 45.7665 13.6496Z" fill="#FEFDF4"/>
</g>
<mask id="mask27_4444_18289" style="mask-type:luminance" maskUnits="userSpaceOnUse" x="0" y="0" width="50" height="48">
<path d="M15.4721 0C6.92711 0 0 6.92711 0 15.4721V32.5279C0 41.0729 6.92711 48 15.4721 48H33.9898C42.5348 48 49.4619 41.0729 49.4619 32.5279V15.4721C49.4619 6.92711 42.5348 0 33.9898 0H15.4721Z" fill="white"/>
</mask>
<g mask="url(#mask27_4444_18289)">
<path d="M35.3445 4.52795C37.7811 4.52795 40.0714 5.47658 41.7949 7.20003C43.5175 8.92267 44.467 11.2138 44.467 13.6504C44.467 16.0869 43.5183 18.3781 41.7949 20.1007C40.0723 21.8234 37.7811 22.7728 35.3445 22.7728C32.908 22.7728 30.6168 21.8242 28.8942 20.1007C27.1715 18.3781 26.2221 16.0869 26.2221 13.6504C26.2221 11.2138 27.1707 8.92348 28.8942 7.20003C30.6176 5.47658 32.908 4.52795 35.3445 4.52795ZM35.3445 3.22846C29.5886 3.22846 24.9226 7.89445 24.9226 13.6504C24.9226 19.4063 29.5886 24.0723 35.3445 24.0723C41.1005 24.0723 45.7665 19.4055 45.7665 13.6496C45.7665 7.89445 41.1005 3.22846 35.3445 3.22846Z" fill="#112033"/>
</g>
<mask id="mask28_4444_18289" style="mask-type:luminance" maskUnits="userSpaceOnUse" x="0" y="0" width="50" height="48">
<path d="M15.4721 0C6.92711 0 0 6.92711 0 15.4721V32.5279C0 41.0729 6.92711 48 15.4721 48H33.9898C42.5348 48 49.4619 41.0729 49.4619 32.5279V15.4721C49.4619 6.92711 42.5348 0 33.9898 0H15.4721Z" fill="white"/>
</mask>
<g mask="url(#mask28_4444_18289)">
<path d="M35.2415 14.1994C35.2415 15.5151 34.1743 16.5824 32.8585 16.5824C31.5428 16.5824 30.4756 15.5151 30.4756 14.1994C30.4756 12.8837 31.542 11.8165 32.8585 11.8165C34.1743 11.8173 35.2415 12.8837 35.2415 14.1994Z" fill="#112033"/>
</g>
<mask id="mask29_4444_18289" style="mask-type:luminance" maskUnits="userSpaceOnUse" x="0" y="0" width="50" height="48">
<path d="M15.4721 0C6.92711 0 0 6.92711 0 15.4721V32.5279C0 41.0729 6.92711 48 15.4721 48H33.9898C42.5348 48 49.4619 41.0729 49.4619 32.5279V15.4721C49.4619 6.92711 42.5348 0 33.9898 0H15.4721Z" fill="white"/>
</mask>
<g mask="url(#mask29_4444_18289)">
<path d="M35.3445 7.35918C38.8125 7.35918 41.6348 10.1807 41.6348 13.6495C41.6348 17.1184 38.8133 19.9399 35.3445 19.9399C31.8757 19.9399 29.0541 17.1184 29.0541 13.6495C29.0541 10.1815 31.8765 7.35918 35.3445 7.35918ZM35.3445 6.05969C31.1528 6.05969 27.7546 9.45786 27.7546 13.6495C27.7546 17.8412 31.1528 21.2394 35.3445 21.2394C39.5362 21.2394 42.9343 17.8412 42.9343 13.6495C42.9343 9.45786 39.5362 6.05969 35.3445 6.05969Z" fill="#112033"/>
</g>
<mask id="mask30_4444_18289" style="mask-type:luminance" maskUnits="userSpaceOnUse" x="0" y="0" width="50" height="48">
<path d="M15.4721 0C6.92711 0 0 6.92711 0 15.4721V32.5279C0 41.0729 6.92711 48 15.4721 48H33.9898C42.5348 48 49.4619 41.0729 49.4619 32.5279V15.4721C49.4619 6.92711 42.5348 0 33.9898 0H15.4721Z" fill="white"/>
</mask>
<g mask="url(#mask30_4444_18289)">
<path d="M40.3973 12.1665C40.3973 12.7342 39.9368 13.1947 39.369 13.1947C38.8013 13.1947 38.3408 12.7342 38.3408 12.1665C38.3408 11.5988 38.8013 11.1382 39.369 11.1382C39.9368 11.1374 40.3973 11.5979 40.3973 12.1665Z" fill="#FEFDF4"/>
</g>
<mask id="mask31_4444_18289" style="mask-type:luminance" maskUnits="userSpaceOnUse" x="0" y="0" width="50" height="48">
<path d="M15.4721 0C6.92711 0 0 6.92711 0 15.4721V32.5279C0 41.0729 6.92711 48 15.4721 48H33.9898C42.5348 48 49.4619 41.0729 49.4619 32.5279V15.4721C49.4619 6.92711 42.5348 0 33.9898 0H15.4721Z" fill="white"/>
</mask>
<g mask="url(#mask31_4444_18289)">
<path d="M33.5057 9.77137C33.5057 10.2887 33.163 10.6461 32.6464 10.6461C32.129 10.6461 31.71 10.227 31.71 9.70964C31.71 9.19228 32.129 8.77319 32.6464 8.77319C32.8738 8.77319 33.0825 8.92994 33.245 9.06477C33.4521 9.23776 33.5057 9.48223 33.5057 9.77137Z" fill="#FEFDF4"/>
</g>
<mask id="mask32_4444_18289" style="mask-type:luminance" maskUnits="userSpaceOnUse" x="0" y="0" width="50" height="48">
<path d="M15.4721 0C6.92711 0 0 6.92711 0 15.4721V32.5279C0 41.0729 6.92711 48 15.4721 48H33.9898C42.5348 48 49.4619 41.0729 49.4619 32.5279V15.4721C49.4619 6.92711 42.5348 0 33.9898 0H15.4721Z" fill="white"/>
</mask>
<g mask="url(#mask32_4444_18289)">
<path d="M36.0236 10.6242C35.5314 10.6242 35.0384 10.5202 34.5884 10.3212C34.2213 10.1588 34.0548 9.72916 34.2173 9.36206C34.3797 8.99495 34.8094 8.82845 35.1765 8.99089C35.3754 9.07861 35.6963 9.18094 36.0894 9.16795C36.4857 9.15495 36.8 9.03069 36.9933 8.92835C37.3491 8.74155 37.7884 8.878 37.9761 9.23292C38.1637 9.58866 38.0264 10.028 37.6715 10.2157C37.2004 10.4642 36.6693 10.6047 36.1373 10.6218C36.0991 10.6234 36.0617 10.6242 36.0236 10.6242Z" fill="#FEFDF4"/>
</g>
<defs>
<linearGradient id="paint0_linear_4444_18289" x1="2.55413" y1="0.484406" x2="48.6606" y2="46.0624" gradientUnits="userSpaceOnUse">
<stop stop-color="#2A85FF"/>
<stop offset="1" stop-color="#024CAF"/>
</linearGradient>
<linearGradient id="paint1_linear_4444_18289" x1="24.4411" y1="48.7667" x2="24.4411" y2="26.2328" gradientUnits="userSpaceOnUse">
<stop stop-color="#D7E1D9"/>
<stop offset="0.1168" stop-color="#D7E1D9"/>
<stop offset="0.2213" stop-color="#DBE4DB"/>
<stop offset="0.3427" stop-color="#E7ECE3"/>
<stop offset="0.472" stop-color="#FAFAF0"/>
<stop offset="0.495" stop-color="#FEFDF2"/>
<stop offset="1" stop-color="#FEFDF2"/>
</linearGradient>
<linearGradient id="paint2_linear_4444_18289" x1="24.2276" y1="33.3386" x2="24.2276" y2="1.70881" gradientUnits="userSpaceOnUse">
<stop stop-color="#D7E1D9"/>
<stop offset="1.38523e-07" stop-color="#D7E1D9"/>
<stop offset="0.0671" stop-color="#E2E8DF"/>
<stop offset="0.2064" stop-color="#F2F4EA"/>
<stop offset="0.3481" stop-color="#FBFBF0"/>
<stop offset="0.495" stop-color="#FEFDF2"/>
<stop offset="1" stop-color="#FEFDF2"/>
</linearGradient>
</defs>
</svg>
